<svg xmlns="http://www.w3.org/2000/svg" viewBox="0 0 681.24 351.7"><path d="M655.17.81a21.6 21.6 0 0 0-9.43 5.43v.01L540.6 91.3a28 28 0 0 1-12.18 5.75l-105.35 20.07a2 2 0 0 0-1.63 1.97v-17.58a3 3 0 0 0-3-3h-49.73l45.01-67.85a4 4 0 0 0 1.04-2.69q0-.28-.04-.55a4 4 0 0 0-3.97-3.43H270.51a4 4 0 0 0-2.97 6.68l45.01 67.85h-49.73a3 3 0 0 0-3 3v17.58a2 2 0 0 0-1.63-1.97L152.84 97.06a28 28 0 0 1-12.18-5.75L35.51 6.25v-.01A21.6 21.6 0 0 0 26.08.81C9.76-3.85-6.36 12.36 2.53 28.08c1.94 3.26 5.03 6.01 8.71 7.15 7.28 2.5 16.33-1.54 18.36-9.15 2.29-7.44-3.76-16.23-11.84-15.09-8.32.85-11.96 11.51-4.59 16.29 3.19 1.92 7.71.91 9.6-2.33 3.22-5.46-3.62-11.88-8.2-6.8-2.49 3.05.83 7.98 4.49 5.86 1.56-.85 1.95-3.13.71-4.41l-.22.2a2.54 2.54 0 0 1-.68 3.89c-3.22 1.75-5.94-2.56-3.73-5.09 3.84-4.01 9.26 1.32 6.45 5.63-4.26 5.53-11.94.31-9.76-5.87 1.91-5.5 10.11-5.99 13.01-1.05 5.12 8.02-3.81 16.51-11.99 13.27-7.63-2.89-9.3-14.11-3.33-19.43 5.08-5.07 13.84-5.17 19.15-.56l.08.38 6.81 26.43C19.27 32.83 3.23 49.01 12.11 64.69c1.94 3.27 5.03 6.01 8.7 7.15 7.28 2.51 16.33-1.53 18.36-9.14 2.29-7.45-3.76-16.23-11.83-15.1-8.32.85-11.97 11.51-4.59 16.29 3.19 1.92 7.7.91 9.6-2.32 3.21-5.46-3.63-11.89-8.21-6.81-2.49 3.05.84 7.98 4.5 5.86 1.55-.84 1.94-3.12.7-4.4l-.22.19a2.54 2.54 0 0 1-.67 3.89c-3.22 1.75-5.94-2.56-3.74-5.08 3.84-4.02 9.26 1.32 6.46 5.62-4.26 5.54-11.94.31-9.77-5.87 1.91-5.49 10.12-5.99 13.02-1.05 5.12 8.02-3.81 16.52-11.99 13.28-7.64-2.9-9.3-14.11-3.34-19.44 5.03-5.01 13.62-5.17 18.95-.72l6.91 26.83c-16.1-4.08-31.71 11.92-22.92 27.44a16 16 0 0 0 8.7 7.15c7.28 2.5 16.33-1.54 18.36-9.15 2.29-7.44-3.76-16.23-11.84-15.09-8.31.84-11.96 11.51-4.58 16.28 3.19 1.92 7.7.92 9.6-2.32 3.21-5.46-3.63-11.89-8.21-6.81-2.49 3.06.84 7.98 4.5 5.87 1.55-.85 1.94-3.13.7-4.41l-.22.2a2.53 2.53 0 0 1-.67 3.88c-3.22 1.75-5.94-2.55-3.74-5.08 3.84-4.02 9.26 1.32 6.46 5.63-4.26 5.53-11.94.31-9.77-5.87 1.91-5.5 10.12-5.99 13.02-1.06 5.11 8.03-3.81 16.52-11.99 13.28-7.64-2.9-9.3-14.11-3.34-19.44 4.84-4.82 12.99-5.15 18.34-1.2l5.91 22.95q.5 1.97 1.21 3.84c-15-1.64-28.29 13.37-20.03 27.96 1.93 3.26 5.03 6.01 8.7 7.15 7.28 2.5 16.33-1.54 18.36-9.15 2.29-7.44-3.76-16.23-11.84-15.09-8.32.85-11.96 11.51-4.58 16.29 3.19 1.92 7.7.91 9.6-2.33 3.21-5.46-3.63-11.88-8.21-6.8-2.49 3.05.84 7.98 4.5 5.86 1.55-.85 1.94-3.13.7-4.41l-.22.2a2.54 2.54 0 0 1-.68 3.89c-3.21 1.75-5.93-2.56-3.73-5.09 3.84-4.01 9.26 1.32 6.45 5.63-4.25 5.53-11.93.31-9.76-5.87 1.91-5.5 10.12-5.99 13.02-1.05 5.11 8.02-3.81 16.51-11.99 13.27-7.64-2.89-9.3-14.11-3.34-19.43 4.93-4.91 13.29-5.16 18.64-.98q.57.74 1.19 1.43l22.32 25.14a29 29 0 0 0 12.66 8.49l57.5 18.92q3.95 1.3 8.06 1.3h98.02V348.7a3 3 0 0 0 3 3h36.43c1.33 0 2.48-.85 2.87-2.12l33.73-109.84c.66-1.47 2.53-2.41 4.79-2.41s4.12.94 4.79 2.41l33.73 109.84a3 3 0 0 0 2.87 2.12h36.43a3 3 0 0 0 3-3V175.29h98.02q4.11 0 8.06-1.3l57.5-18.92a29 29 0 0 0 12.66-8.49l22.32-25.14q.62-.7 1.19-1.43c5.35-4.18 13.71-3.93 18.64.98 5.96 5.32 4.3 16.54-3.34 19.43-8.18 3.24-17.1-5.25-11.99-13.27 2.9-4.94 11.11-4.45 13.02 1.05 2.17 6.18-5.51 11.4-9.76 5.87-2.81-4.31 2.61-9.64 6.45-5.63 2.2 2.53-.52 6.84-3.73 5.09a2.54 2.54 0 0 1-.68-3.89l-.22-.2c-1.24 1.28-.85 3.56.7 4.41 3.66 2.12 6.99-2.81 4.5-5.86-4.58-5.08-11.42 1.34-8.21 6.8 1.9 3.24 6.41 4.25 9.6 2.33 7.38-4.78 3.74-15.44-4.58-16.29-8.08-1.14-14.13 7.65-11.84 15.09 2.03 7.61 11.08 11.65 18.36 9.15 3.67-1.14 6.77-3.89 8.7-7.15 8.26-14.59-5.03-29.6-20.03-27.96q.7-1.87 1.21-3.84l5.91-22.95c5.35-3.95 13.5-3.62 18.34 1.2 5.96 5.33 4.3 16.54-3.34 19.44-8.18 3.24-17.1-5.25-11.99-13.28 2.9-4.93 11.11-4.44 13.02 1.06 2.17 6.18-5.51 11.4-9.77 5.87-2.8-4.31 2.62-9.65 6.46-5.63 2.2 2.53-.52 6.83-3.74 5.08a2.53 2.53 0 0 1-.67-3.88l-.22-.2c-1.24 1.28-.85 3.56.7 4.41 3.66 2.11 6.99-2.81 4.5-5.87-4.58-5.08-11.42 1.35-8.21 6.81 1.9 3.24 6.41 4.24 9.6 2.32 7.38-4.77 3.73-15.44-4.58-16.28-8.08-1.14-14.13 7.65-11.84 15.09 2.03 7.61 11.08 11.65 18.36 9.15a16 16 0 0 0 8.7-7.15c8.79-15.52-6.82-31.52-22.92-27.44l6.91-26.83c5.33-4.45 13.92-4.29 18.95.72 5.96 5.33 4.3 16.54-3.34 19.44-8.18 3.24-17.11-5.26-11.99-13.28 2.9-4.94 11.11-4.44 13.02 1.05 2.17 6.18-5.51 11.41-9.77 5.87-2.8-4.3 2.62-9.64 6.46-5.62 2.2 2.52-.52 6.83-3.74 5.08a2.54 2.54 0 0 1-.67-3.89l-.22-.19c-1.24 1.28-.85 3.56.7 4.4 3.66 2.12 6.99-2.81 4.5-5.86-4.58-5.08-11.42 1.35-8.21 6.81 1.9 3.23 6.41 4.24 9.6 2.32 7.38-4.78 3.73-15.44-4.59-16.29-8.07-1.13-14.12 7.65-11.83 15.1 2.03 7.61 11.08 11.65 18.36 9.14 3.67-1.14 6.76-3.88 8.7-7.15 8.88-15.68-7.16-31.86-23.45-27.29l6.81-26.43.08-.37c5.31-4.62 14.07-4.52 19.15.55 5.97 5.32 4.3 16.54-3.33 19.43-8.18 3.24-17.11-5.25-11.99-13.27 2.9-4.94 11.1-4.45 13.01 1.05 2.18 6.18-5.5 11.4-9.76 5.87-2.81-4.31 2.61-9.64 6.45-5.63 2.21 2.53-.51 6.84-3.73 5.09a2.54 2.54 0 0 1-.68-3.89l-.22-.2c-1.24 1.28-.85 3.56.71 4.41 3.66 2.12 6.98-2.81 4.49-5.86-4.58-5.08-11.42 1.34-8.2 6.8 1.89 3.24 6.41 4.25 9.6 2.33 7.37-4.78 3.73-15.44-4.59-16.29-8.08-1.14-14.13 7.65-11.84 15.09 2.03 7.61 11.08 11.65 18.36 9.15 3.68-1.14 6.77-3.89 8.71-7.15 8.89-15.72-7.23-31.93-23.54-27.27ZM128.2 96.66a1 1 0 1 1 1.56 1.26 1 1 0 0 1-1.56-1.26m-3.87-3.13a1 1 0 0 1 1.4-.15 1 1 0 0 1-.62 1.78 1 1 0 0 1-.63-.23 1 1 0 0 1-.15-1.4m.31 51.94a1 1 0 0 1-1.26.64 1 1 0 0 1-.64-1.27 1 1 0 0 1 1.9.63m-2.37-61.32a1 1 0 1 1 .78 1.63 1 1 0 0 1-.63-.23 1 1 0 0 1-.15-1.4m-13.45-3.17c.35-.42.98-.49 1.41-.14a1 1 0 1 1-1.26 1.55 1 1 0 0 1-.15-1.41m.93 58.53a1 1 0 0 1 .63 1.27 1 1 0 0 1-.94.69 1 1 0 0 1-.32-.06 1 1 0 0 1-.64-1.26c.18-.52.74-.81 1.27-.64m-4.8-61.66a1 1 0 0 1 1.4-.15 1 1 0 1 1-1.26 1.56 1 1 0 0 1-.14-1.41m.05 60.1a1 1 0 0 1 .63 1.26 1 1 0 0 1-1.26.64 1 1 0 0 1-.64-1.26 1 1 0 0 1 1.27-.64m-2.22-69.57a1 1 0 0 1 1.41-.14c.43.34.5.97.15 1.4a1 1 0 0 1-1.41.15 1 1 0 0 1-.15-1.41m-1.71 6.34a1 1 0 0 1 1.41-.15 1 1 0 1 1-1.26 1.55 1 1 0 0 1-.15-1.4m-.19 62.92c-.19.31-.52.49-.86.49q-.27 0-.51-.14a1 1 0 0 1-.35-1.37 1 1 0 0 1 1.37-.35 1 1 0 0 1 .35 1.37m-1.99-72.41a1 1 0 0 1 1.4-.15 1 1 0 1 1-1.26 1.56 1 1 0 0 1-.14-1.41m-1.7 6.35a1 1 0 1 1 1.56 1.26 1 1 0 0 1-1.56-1.26m-2.2-9.5a1 1 0 0 1 1.41-.15 1 1 0 0 1 .14 1.4.97.97 0 0 1-1.4.15 1 1 0 0 1-.15-1.4m.03 15.46a1 1 0 0 1-.77.37 1 1 0 0 1-.78-1.63 1 1 0 0 1 1.55 1.26m-1.7-9.1c.35-.43.97-.49 1.41-.15.42.35.49.98.14 1.41a1 1 0 0 1-.77.37 1 1 0 0 1-.78-1.63m-2.23-9.52c.35-.43.98-.49 1.41-.15.43.35.49.98.15 1.41a1 1 0 0 1-.78.37 1 1 0 0 1-.78-1.63m.05 15.48c-.2.24-.49.37-.78.37q-.34 0-.63-.23a1 1 0 0 1-.15-1.4 1 1 0 1 1 1.56 1.26m-1.7-9.09a1 1 0 1 1 .78 1.63q-.34 0-.63-.23a1 1 0 0 1-.15-1.4m.97 60.35a1 1 0 0 1-.08 1.41 1 1 0 0 1-.66.26q-.44 0-.75-.34a1 1 0 1 1 1.49-1.33m-3.22-69.89a1 1 0 1 1 1.56 1.26 1 1 0 0 1-1.56-1.26m.06 15.48a1 1 0 0 1-1.41.15 1 1 0 1 1 1.41-.15m-1.68-9.08a1 1 0 1 1 .77 1.63 1 1 0 0 1-.63-.22 1 1 0 0 1-.14-1.41m.11 59.67a1 1 0 1 1 1.33 1.49 1 1 0 0 1-1.41-.08 1 1 0 0 1 .08-1.41m-2.39-69.22a1 1 0 1 1 1.56 1.26 1 1 0 0 1-1.56-1.26m-.93 65.48a1 1 0 1 1 .66 1.74c-.27 0-.55-.11-.75-.33a1 1 0 0 1 .09-1.41m-.41-49.85a1 1 0 0 1-.15-1.4 1 1 0 0 1 1.56 1.25 1 1 0 0 1-1.41.15m-.26-9.21a1 1 0 1 1 .78 1.63 1 1 0 0 1-.63-.23 1 1 0 0 1-.15-1.4m-2.29-9.58a1 1 0 0 1 1.4-.15 1 1 0 0 1-1.25 1.56 1 1 0 0 1-.15-1.41m-.36 64.9a1 1 0 1 1 .66 1.74c-.27 0-.55-.11-.75-.33a1 1 0 0 1 .09-1.41m-.35-49.03a1 1 0 1 1 0-2 1 1 0 0 1 0 2m-.88-9.43a1 1 0 1 1 1.56 1.26 1 1 0 0 1-1.56-1.26m-3.64 6.06a1 1 0 0 1-.15-1.41 1 1 0 1 1 .15 1.41m-.42 46.38a1 1 0 0 1-1.38-.3 1 1 0 1 1 1.38.3m1.97 2.27c.41-.36 1.04-.32 1.41.09s.33 1.04-.09 1.41a1 1 0 0 1-.66.25c-.27 0-.55-.11-.75-.33a1 1 0 0 1 .09-1.42m-.22-64.3c.35-.43.98-.49 1.41-.15.42.35.49.98.14 1.41a1 1 0 0 1-1.4.15 1 1 0 0 1-.15-1.41m-1.56 6.45a1 1 0 0 1 1.4-.14c.43.34.5.97.15 1.4a1 1 0 0 1-.78.37 1 1 0 0 1-.77-1.63m-2.34-9.6a1 1 0 1 1 .78 1.63 1 1 0 0 1-.63-.23 1 1 0 0 1-.15-1.4m.44 59.51a1 1 0 0 1-.95 1.31 1 1 0 0 1-.31-1.95 1 1 0 0 1 1.26.64m-1.13-43.64a1 1 0 1 1 0-2 1 1 0 0 1 0 2m-.85-9.4a1 1 0 1 1 1.56 1.26 1 1 0 0 1-1.56-1.26m.71 48.27a1 1 0 0 1-.97 1.25 1 1 0 0 1-.25-1.97 1 1 0 0 1 1.22.72m-1.97-3.63-.25.04a1 1 0 1 1 .97-1.25 1 1 0 0 1-.72 1.21m-.53-6.06a1 1 0 0 1-.97 1.25c-.44 0-.85-.3-.97-.75-.13-.53.19-1.08.72-1.22.54-.13 1.08.19 1.22.72m-1.25-32.32a1 1 0 0 1-.63-.22 1 1 0 1 1 .63.22m.68-15.88a1 1 0 0 1 1.41-.15c.43.34.5.97.15 1.4a1 1 0 0 1-1.41.15 1 1 0 0 1-.15-1.4m-1.51 6.48a1 1 0 0 1 1.4-.14c.43.34.5.97.15 1.4a1 1 0 0 1-1.41.15 1 1 0 0 1-.14-1.41m.83 36.88a1 1 0 1 1-1.94.5 1 1 0 0 1 1.94-.5m-1.25-4.85a1 1 0 1 1-1.93.5 1 1 0 0 1 .72-1.21 1 1 0 0 1 1.21.71m-1.25-4.84a1 1 0 1 1-1.93.5 1 1 0 1 1 1.93-.5m-1.39-20.94a1 1 0 0 1-.63-.22 1 1 0 0 1-.15-1.41 1 1 0 0 1 1.41-.14c.43.34.5.97.15 1.4a1 1 0 0 1-.78.37m.68-15.89a1 1 0 1 1 .77 1.63 1 1 0 0 1-.63-.22 1 1 0 0 1-.14-1.41m-1.5 6.51a1 1 0 0 1 1.4-.15 1 1 0 0 1 .15 1.41 1 1 0 0 1-1.4.14 1 1 0 0 1-.15-1.4m.97 25.48a1 1 0 0 1-.97 1.24 1 1 0 0 1-.97-.75 1 1 0 0 1 .72-1.21 1 1 0 0 1 1.22.72M52.13 53.61c.53-.13 1.08.19 1.22.72a1 1 0 0 1-.97 1.25 1 1 0 0 1-.25-1.97m-.75-2.89-.25.04a1 1 0 0 1-.96-.76 1 1 0 1 1 1.93-.49 1 1 0 0 1-.72 1.21m1.99 7.72a1 1 0 0 1 .5 1.94q-.12.03-.25.03c-.44 0-.85-.3-.97-.75-.13-.53.19-1.08.72-1.22m1.25 4.83a1 1 0 1 1 .24 1.97 1 1 0 0 1-.96-.75 1 1 0 0 1 .72-1.22m1.24 4.83a1 1 0 0 1 1.22.72 1 1 0 0 1-.72 1.21l-.25.04a1 1 0 0 1-.25-1.97m1.24 4.83a1 1 0 0 1 1.22.72 1 1 0 0 1-.72 1.21q-.12.03-.25.04a1 1 0 0 1-.25-1.97m1.71-17.41-.25.03a1 1 0 0 1-.96-.75 1 1 0 1 1 1.93-.5 1 1 0 0 1-.72 1.22m.75 2.91a1 1 0 0 1 1.22.72 1 1 0 0 1-.72 1.21q-.12.03-.25.04a1 1 0 0 1-.25-1.97m-1.21 19.32a1 1 0 1 1 .25 1.97 1 1 0 0 1-.25-1.97m1.24 4.83a1 1 0 0 1 1.22.72 1 1 0 0 1-.97 1.25c-.44 0-.85-.3-.97-.75a1 1 0 0 1 .72-1.22m1.25 4.83a1 1 0 1 1 .24 1.97 1 1 0 0 1-.96-.75 1 1 0 0 1 .72-1.22m1.19-23.42a1 1 0 0 1-1.94.5c-.13-.54.19-1.08.72-1.22a1 1 0 0 1 1.22.72M59.91 33.7a1 1 0 0 1 1.4-.15 1 1 0 0 1-.62 1.78 1 1 0 0 1-.63-.23 1 1 0 0 1-.15-1.4m-1.48 6.52c.35-.43.98-.49 1.41-.15.43.35.49.98.15 1.41a1 1 0 0 1-1.41.15 1 1 0 0 1-.15-1.41m-.09 8.91a1 1 0 0 1 1.38.33c.28.47.13 1.09-.34 1.38a1 1 0 0 1-.52.14 1 1 0 0 1-.86-.48 1 1 0 0 1 .34-1.37m-2.33-18.59a1 1 0 1 1 1.55 1.27 1 1 0 0 1-1.55-1.27m-1.45 6.55a1 1 0 0 1 1.4-.15 1 1 0 0 1-.63 1.78 1 1 0 0 1-.62-.23 1 1 0 0 1-.15-1.4m-2.45-9.7c.35-.43.98-.49 1.41-.15.43.35.49.98.15 1.41-.2.24-.49.37-.78.37a1 1 0 0 1-.78-1.63m-1.43 6.56c.35-.43.98-.49 1.41-.15.43.35.49.98.15 1.41-.2.24-.49.37-.78.37a1 1 0 0 1-.78-1.63m.18 10.73a1 1 0 0 1-.72 1.21l-.25.04a1 1 0 1 1 .97-1.25m-1.97-3.61-.25.03a1 1 0 0 1-.96-.75 1 1 0 1 1 1.93-.5 1 1 0 0 1-.72 1.22m-.68-16.83a1 1 0 1 1 .78 1.63q-.34 0-.63-.23a1 1 0 0 1-.15-1.4m-.46 10.03c.54.09.91.61.81 1.15a1 1 0 0 1-.98.83h-.18c-.54-.1-.9-.62-.81-1.16a1 1 0 0 1 1.16-.81Zm-3.44-13.19c.35-.42.98-.49 1.41-.14s.5.97.15 1.4a1 1 0 0 1-1.41.15 1 1 0 0 1-.15-1.41m-3.89-3.15a1 1 0 1 1 .77 1.63 1 1 0 0 1-.63-.22 1 1 0 0 1-.14-1.41m-3.38 2.15a1 1 0 0 1-.77-1.19c.12-.54.65-.88 1.19-.77.54.12.88.65.77 1.19a1 1 0 0 1-.98.79zm1.25 4.9a1 1 0 0 1-.96-.75 1 1 0 1 1 1.93-.5 1 1 0 0 1-.97 1.25m1.26 4.85a1 1 0 0 1-.25-1.97 1 1 0 1 1 .25 1.97m1.24 4.86a1 1 0 0 1-.96-.75 1 1 0 1 1 1.94-.5 1 1 0 0 1-.72 1.21zm1.26 4.85a1 1 0 1 1 0-2 1 1 0 0 1 0 2m1.25 4.86a1 1 0 1 1 0-2 1 1 0 0 1 0 2m1.25 4.85a1 1 0 0 1-.25-1.97c.53-.13 1.08.19 1.22.72a1 1 0 0 1-.97 1.25m1.25 4.86c-.44 0-.85-.3-.97-.75a1 1 0 0 1 1.94-.5 1 1 0 0 1-.97 1.25m1.25 4.85c-.44 0-.85-.3-.97-.75a1 1 0 0 1 .72-1.22c.54-.13 1.08.19 1.22.72a1 1 0 0 1-.97 1.25m1.25 4.86c-.44 0-.85-.3-.97-.75-.13-.54.19-1.08.72-1.22a1 1 0 1 1 .25 1.97m1.25 4.85a1 1 0 0 1-.25-1.97c.54-.13 1.08.19 1.22.72a1 1 0 0 1-.97 1.25m1.25 4.86a1 1 0 0 1-.96-.75 1 1 0 0 1 .72-1.22 1 1 0 0 1 1.21.72 1 1 0 0 1-.97 1.25m1.25 4.85a1 1 0 0 1-.24-1.97 1 1 0 1 1 .24 1.97m1.26 4.86a1 1 0 0 1-.97-.75 1 1 0 0 1 .72-1.22 1 1 0 0 1 1.21.72 1 1 0 0 1-.96 1.25m1.25 4.85a1 1 0 0 1-.25-1.97 1 1 0 1 1 .25 1.97m1.25 4.86a1 1 0 1 1 .97-1.25c.13.53-.19 1.08-.72 1.22zm1.25 4.85a1 1 0 0 1-.97-.75 1 1 0 0 1 .72-1.21 1 1 0 0 1 1.22.71 1 1 0 0 1-.97 1.25m1.25 4.86a1 1 0 1 1 0-2 1 1 0 0 1 0 2m1.61 4.79q-.15.05-.31.05a1 1 0 0 1-.95-.7 1 1 0 0 1 .65-1.25 1 1 0 0 1 1.26.64 1 1 0 0 1-.65 1.26m2.03 4.58q-.22.1-.45.11a1 1 0 0 1-.45-1.9 1 1 0 0 1 1.34.45 1 1 0 0 1-.44 1.34m.38-17.82a1 1 0 1 1 .97-1.25 1 1 0 0 1-.72 1.21zm.27 4.07c-.13-.53.19-1.08.72-1.22.54-.13 1.08.19 1.22.72a1 1 0 0 1-.97 1.25c-.44 0-.85-.3-.97-.75m2.09 17.95q-.27.18-.59.19a1 1 0 0 1-.59-1.81 1 1 0 0 1 1.4.22 1 1 0 0 1-.22 1.4m.37-12.4-.24.03a1 1 0 0 1-.25-1.97 1 1 0 0 1 .49 1.94m.47 4.15a1 1 0 0 1 1.83-.83c.22.51 0 1.1-.5 1.33q-.21.09-.42.09a1 1 0 0 1-.91-.59M68 120q-.3.25-.67.25c-.27 0-.55-.12-.75-.34a1 1 0 0 1 .09-1.41 1 1 0 0 1 1.41.08A1 1 0 0 1 68 120m.94-7.13a1 1 0 1 1 0-2 1 1 0 0 1 0 2m2.39 10.87a1 1 0 0 1-1.41-.08 1 1 0 1 1 1.49-1.33 1 1 0 0 1-.08 1.41m.85-7.08a1 1 0 1 1 .74-1.66 1 1 0 0 1-.74 1.66m2.47 10.83a1 1 0 0 1-1.41-.08 1 1 0 0 1 .09-1.41 1 1 0 1 1 1.32 1.49m.84-7.1a1 1 0 0 1-.75-.34 1 1 0 1 1 1.49-1.32 1 1 0 0 1-.74 1.66m2.49 10.85a1 1 0 0 1-1.41-.08 1 1 0 0 1 .09-1.41 1 1 0 1 1 1.32 1.49m.82-7.12a1 1 0 0 1-.75-.34 1 1 0 1 1 1.49-1.32 1 1 0 0 1-.74 1.66m2.51 10.87a1 1 0 0 1-1.41-.08 1 1 0 0 1 .08-1.41 1 1 0 1 1 1.33 1.49m.8-7.14q-.44 0-.75-.34a1 1 0 1 1 1.49-1.33 1 1 0 0 1-.08 1.42q-.3.24-.66.25m2.53 10.89a1 1 0 0 1-1.41-.08 1 1 0 0 1 .08-1.41 1 1 0 0 1 1.42.08 1 1 0 0 1-.09 1.41m.78-7.16q-.44 0-.75-.34a1 1 0 1 1 1.49-1.33 1 1 0 0 1-.08 1.41 1 1 0 0 1-.66.26m2.55 10.91a1 1 0 0 1-1.41-.08 1 1 0 0 1 .08-1.41 1 1 0 0 1 1.41.08 1 1 0 0 1-.08 1.41m1.42-7.44a1 1 0 0 1-1.41-.08 1 1 0 1 1 1.41.08m2.22 10.88a1 1 0 0 1-.77.36q-.34 0-.64-.23a1 1 0 1 1 1.41-.13m1.09-7.15a1 1 0 1 1-1.33-1.5 1 1 0 0 1 1.41.09 1 1 0 0 1-.08 1.41m.95-7.96q-.3.25-.66.25-.44 0-.75-.34a1 1 0 0 1 .08-1.41 1 1 0 0 1 1.42.08c.36.42.32 1.05-.09 1.42m2.24 17.7a1 1 0 0 1-.88.54 1 1 0 0 1-.89-1.46 1 1 0 1 1 1.77.92m.58-6.5a1 1 0 0 1-1.39.23 1 1 0 0 1-.23-1.4 1 1 0 0 1 1.62 1.17m.5-7.46q-.3.25-.66.25-.43 0-.75-.34a1 1 0 1 1 1.5-1.32 1 1 0 0 1-.09 1.41m.54-53.72a1 1 0 1 1 1.26-1.56 1 1 0 0 1-.63 1.78 1 1 0 0 1-.63-.22m3.11 69.36a1 1 0 0 1-1.26.63 1 1 0 0 1-.64-1.26 1 1 0 0 1 1.26-.64 1 1 0 0 1 .64 1.27m.41-6.18a1 1 0 0 1-1.26.63 1 1 0 1 1 .62-1.9 1 1 0 0 1 .64 1.27m1.77-60.19a.97.97 0 0 1-1.4.15 1 1 0 0 1-.15-1.4 1 1 0 0 1 1.41-.15 1 1 0 0 1 .14 1.4m2.58 67.93a1 1 0 0 1-1.26.64 1 1 0 1 1 .62-1.9 1 1 0 0 1 .64 1.26m.39-6.19a1 1 0 0 1-1.27.64 1 1 0 0 1-.64-1.26 1 1 0 0 1 1.91.62m.92-58.59a1 1 0 0 1-.77.37 1 1 0 1 1 .62-1.78 1 1 0 0 1 .15 1.41m.14-14.04a1 1 0 0 1-.15-1.4 1 1 0 1 1 .78 1.63q-.34 0-.63-.23m3.31 80.39a1 1 0 0 1-1.26.64 1 1 0 0 1-.64-1.26 1 1 0 0 1 1.27-.64 1 1 0 0 1 .63 1.26m.36-6.2a1 1 0 0 1-1.26.64 1 1 0 1 1 .62-1.9 1 1 0 0 1 .64 1.26m.08-57a1 1 0 0 1-1.4.15 1 1 0 0 1 1.25-1.56 1 1 0 0 1 .15 1.41m1.55-14.18a1 1 0 0 1-.77.37 1 1 0 1 1 .63-1.78 1 1 0 0 1 .14 1.41m.57 8.17c.35-.43.98-.49 1.41-.15.42.35.49.98.14 1.41a1 1 0 0 1-.77.37 1 1 0 0 1-.78-1.63m.22 7.9a1 1 0 0 1 1.4-.15c.43.34.5.97.15 1.4a1 1 0 0 1-.78.37 1 1 0 0 1-.77-1.62m2.22 50.32a1 1 0 0 1-1.26.64 1 1 0 1 1 1.26-.64m-.23 12.56a1 1 0 0 1-1.27.64 1 1 0 1 1 1.27-.64m.33-6.21a1 1 0 0 1-1.27.64 1 1 0 0 1-.63-1.26 1 1 0 0 1 1.26-.64 1 1 0 0 1 .64 1.26m.79-69.59a1 1 0 0 1-1.4.15 1 1 0 0 1 1.25-1.56 1 1 0 0 1 .15 1.41m.55 8.16a1 1 0 0 1 1.4-.15c.43.34.5.97.15 1.4a1 1 0 0 1-.78.38q-.34 0-.63-.23a1 1 0 0 1-.14-1.4m.38 9.31a1 1 0 0 1 1.25-1.56 1 1 0 0 1-1.25 1.56m2.29 46.07a1 1 0 1 1-.62 1.9 1 1 0 0 1-.64-1.26 1 1 0 0 1 1.26-.64m.42 13.83a1 1 0 0 1-.95.68q-.15.01-.31-.05a1 1 0 0 1-.64-1.26 1 1 0 0 1 1.26-.64 1 1 0 0 1 .64 1.27m.3-6.22a1 1 0 0 1-1.26.64 1 1 0 1 1 1.26-.64m-.04-67.99a1 1 0 0 1-.78.37 1 1 0 0 1-.62-.23 1 1 0 0 1-.15-1.4 1 1 0 0 1 1.55 1.26m.52 8.13c.35-.43.98-.49 1.41-.15.43.35.49.98.15 1.41-.2.24-.49.37-.78.37a1 1 0 0 1-.78-1.63m1.8 9.18a1 1 0 0 1-1.41.15 1 1 0 0 1-.14-1.41 1 1 0 0 1 1.4-.15 1 1 0 0 1 .15 1.41m2.18 58.46a1 1 0 0 1-1.26.64 1 1 0 1 1 .62-1.9 1 1 0 0 1 .64 1.26m.28-6.22a1 1 0 0 1-1.26.64 1 1 0 0 1 .62-1.91 1 1 0 0 1 .64 1.27m1.43-49.1a1 1 0 0 1-1.41.15 1 1 0 0 1-.14-1.41 1 1 0 1 1 1.55 1.26m.18-14a1 1 0 0 1-.15-1.41 1 1 0 1 1 .15 1.41m2.44 57.06a1 1 0 0 1 .63 1.26 1 1 0 0 1-1.26.64 1 1 0 0 1-.64-1.26 1 1 0 0 1 1.27-.64m.43 13.83a1 1 0 0 1-1.26.64 1 1 0 0 1-.64-1.26 1 1 0 0 1 1.27-.64 1 1 0 0 1 .63 1.26m.25-6.23a1 1 0 0 1-1.26.63 1 1 0 0 1-.64-1.26c.18-.52.74-.81 1.27-.64a1 1 0 0 1 .63 1.27m.59-47.51a1 1 0 0 1-1.41.15 1 1 0 0 1-.14-1.41 1 1 0 0 1 1.4-.15 1 1 0 0 1 .15 1.41m1.6-14.15a1 1 0 0 1-.78.37.99.99 0 0 1-.78-1.62 1 1 0 0 1 1.56 1.25m.45 8.09a1 1 0 1 1 1.55 1.25 1 1 0 0 1-1.55-1.25m.17 48.17a1 1 0 0 1 1.26-.63c.52.17.81.73.63 1.26a1 1 0 0 1-.95.68q-.15 0-.31-.05a1 1 0 0 1-.63-1.26m1.71 13.2a1 1 0 0 1-1.27.64 1 1 0 1 1 1.27-.64m.22-6.25a1 1 0 0 1-1.26.64 1 1 0 1 1 .62-1.9 1 1 0 0 1 .64 1.26m-.05-46.2a1 1 0 0 1-1.38.29 1 1 0 0 1-.29-1.38 1 1 0 0 1 1.38-.3c.46.31.59.92.29 1.39m1.39-13.85a1 1 0 0 1-1.4.15 1 1 0 1 1 1.26-1.56c.42.35.49.98.14 1.41m.53 7.95a1 1 0 0 1 1.38-.31 1 1 0 0 1 .31 1.38 1 1 0 0 1-1.39.31 1 1 0 0 1-.3-1.38m.68 7.4c.25-.49.86-.69 1.35-.44a1 1 0 0 1-.9 1.78 1 1 0 0 1-.45-1.34m2.17 39.94a1 1 0 0 1-1.27.64 1 1 0 1 1 1.27-.64m-.18 12.58a1 1 0 0 1-.95.68q-.16.01-.32-.05a1 1 0 0 1-.63-1.26 1 1 0 0 1 1.26-.64 1 1 0 0 1 .64 1.27m.2-6.26c-.14.42-.54.69-.96.69q-.15.01-.31-.05a1 1 0 0 1-.63-1.26 1 1 0 0 1 1.26-.64 1 1 0 0 1 .64 1.26m.58-58.57a1 1 0 0 1-.81.42q-.3 0-.58-.18a1 1 0 0 1-.24-1.4c.32-.44.95-.55 1.4-.23a1 1 0 0 1 .23 1.39m.85 7.43a1 1 0 0 1 1.33-.48 1 1 0 0 1-.43 1.91q-.21 0-.43-.1a1 1 0 0 1-.47-1.33m.92 6.99a1 1 0 1 1 1.87.71 1 1 0 0 1-.94.65q-.17 0-.35-.07a1 1 0 0 1-.58-1.29m2.21 51.97a1 1 0 0 1-1.26.64 1 1 0 1 1 .62-1.9 1 1 0 0 1 .64 1.26m.17-6.26a1 1 0 0 1-1.26.64 1 1 0 1 1 .62-1.9 1 1 0 0 1 .64 1.26m0-6.32a1 1 0 0 1-1.26.64 1 1 0 1 1 .62-1.9 1 1 0 0 1 .64 1.26m.22-51.34a1 1 0 0 1-1.35.44 1 1 0 1 1 .91-1.78 1 1 0 0 1 .44 1.34m1.69 8.19a1 1 0 0 1-.63-1.27 1 1 0 1 1 .63 1.27m.45 5.37a1 1 0 1 1 1.93.48 1 1 0 0 1-1.21.73 1 1 0 0 1-.72-1.21m2.23 51.93a1 1 0 0 1-1.26.64 1 1 0 0 1-.64-1.27c.18-.52.74-.8 1.27-.63.52.17.81.73.63 1.26m.15-6.27a1 1 0 0 1-1.27.64 1 1 0 0 1-.63-1.26 1 1 0 0 1 1.26-.64 1 1 0 0 1 .64 1.26m.01-6.31a1 1 0 0 1-1.26.64 1 1 0 0 1-.64-1.27 1 1 0 0 1 1.26-.63 1 1 0 0 1 .64 1.26m.14-51.11a1 1 0 0 1-1.26.64 1 1 0 0 1-.63-1.27 1 1 0 0 1 1.26-.63 1 1 0 0 1 .63 1.26m1.97 7.66a1 1 0 0 1-.79-1.17 1 1 0 0 1 1.17-.8 1 1 0 0 1-.19 1.99zm.38 5.16a1 1 0 0 1 1.97.38 1 1 0 0 1-.99.81l-.18-.02a1 1 0 0 1-.8-1.17m2.12 52.44a1 1 0 0 1-.95.68q-.16.01-.32-.05a1 1 0 0 1-.64-1.26c.18-.52.74-.81 1.27-.64.52.18.81.74.64 1.27m.11-6.28a1 1 0 0 1-1.26.64 1 1 0 0 1-.64-1.27 1 1 0 0 1 1.9.63m.03-6.31a1 1 0 0 1-1.26.64 1 1 0 0 1-.64-1.26 1 1 0 0 1 1.27-.64 1 1 0 0 1 .63 1.26m-.7-50.77h-.19a1 1 0 0 1-.79-1.17c.1-.55.63-.9 1.17-.8s.9.63.79 1.17a1 1 0 0 1-.98.81Zm96.34 24.55a1 1 0 0 1-.87 1.12l-.12.01c-.5 0-.93-.37-1-.87a1 1 0 0 1 .87-1.12 1 1 0 0 1 1.12.86m-6.98 18.74c-.55 0-1-.45-1-1s.45-1 1-1 1 .45 1 1-.45 1-1 1m1 4c0 .56-.45 1-1 1s-1-.44-1-1 .45-1 1-1 1 .45 1 1m-1-9c-.55 0-1-.45-1-1s.45-1 1-1 1 .44 1 1-.45 1-1 1m0-5.01c-.55 0-1-.44-1-1s.45-1 1-1 1 .45 1 1-.45 1-1 1m-.52-18.37c.54.1.9.63.8 1.17-.1.48-.52.81-.98.81l-.19-.01a1 1 0 1 1 .37-1.97m-3.42 38.3c0 .56-.45 1-1 1s-1-.44-1-1 .45-1 1-1 1 .45 1 1m-1.5-39.24a1 1 0 0 1-.19 1.99q-.1 0-.19-.02a1 1 0 0 1 .38-1.97m-3.5 39.24c0 .56-.45 1-1 1s-1-.44-1-1 .45-1 1-1 1 .45 1 1m-1.43-40.17c.54.1.9.62.79 1.16a1 1 0 0 1-.98.82l-.19-.02a1 1 0 0 1-.79-1.17 1 1 0 0 1 1.17-.79m-3.58 40.17c0 .56-.44 1-1 1s-1-.44-1-1 .45-1 1-1 1 .45 1 1m-1.35-41.11c.55.1.9.62.8 1.17a1 1 0 0 1-1.17.79 1 1 0 0 1-.79-1.17c.1-.54.62-.9 1.16-.79m-3.65 41.11c0 .56-.44 1-1 1s-1-.44-1-1 .45-1 1-1 1 .45 1 1m-1.27-42.05c.54.1.9.62.79 1.17a1 1 0 0 1-.98.81l-.19-.02a1 1 0 1 1 .38-1.96m-3.73 42.05c0 .56-.45 1-1 1s-1-.44-1-1 .45-1 1-1 1 .45 1 1m-1.19-42.99a1 1 0 0 1-.19 1.98q-.1 0-.19-.02a1 1 0 0 1-.79-1.17 1 1 0 0 1 1.17-.79m-3.81 42.99c0 .56-.45 1-1 1s-1-.44-1-1 .44-1 1-1 1 .45 1 1m-1.12-43.93a1 1 0 0 1-.19 1.98l-.18-.01a1 1 0 1 1 .37-1.97m-4.93-.94a1 1 0 0 1-.18 1.99l-.19-.02a1 1 0 0 1-.79-1.17c.1-.55.62-.9 1.16-.8m1.05 44.87a1 1 0 0 1-2.01 0c0-.56.45-1 1.01-1s1 .45 1 1m-5.97-45.81a1 1 0 0 1-.19 1.99l-.19-.02a1 1 0 0 1 .38-1.97m.96 45.81c0 .56-.45 1-1 1s-1-.44-1-1 .45-1 1-1 1 .45 1 1m-5.89-46.74c.55.1.9.62.8 1.17a1 1 0 0 1-1.17.79 1 1 0 0 1-.8-1.17 1 1 0 0 1 1.17-.79m.89 46.74c0 .56-.45 1-1 1s-1-.44-1-1 .45-1 1-1 1 .45 1 1m-5.81-47.68c.54.1.9.62.79 1.17a1 1 0 0 1-.98.81l-.18-.02a1 1 0 0 1-.8-1.17 1 1 0 0 1 1.17-.79m.81 47.68c0 .56-.45 1-1 1s-1-.44-1-1 .44-1 1-1 1 .45 1 1m-37.44-46.52a1 1 0 0 1-.79-1.17 1 1 0 1 1 1.96.38 1 1 0 0 1-.98.81q-.1 0-.19-.02m1.57 4.37a1 1 0 0 1-.19 1.99l-.19-.02a1 1 0 0 1 .38-1.97m.82 53.76a1 1 0 0 1-.97.75q-.12 0-.25-.03a1 1 0 1 1 .5-1.93c.54.14.86.68.72 1.21m.06-6.18a1 1 0 0 1-.95.68q-.16.01-.31-.05a1 1 0 0 1-.64-1.26 1 1 0 0 1 1.26-.64 1 1 0 0 1 .64 1.27m.04-6.3a1 1 0 0 1-.95.68q-.15.01-.31-.05a1 1 0 0 1-.64-1.26c.18-.52.74-.81 1.27-.64a1 1 0 0 1 .63 1.27m-.52-51.4q-.1 0-.19-.02a1 1 0 0 1-.79-1.17 1 1 0 1 1 .98 1.19m2.93 6.69c-.54-.11-.9-.63-.8-1.17a1 1 0 1 1 .99 1.18zm1.58 4.37c.54.1.9.63.79 1.17a1 1 0 0 1-.98.81l-.18-.02a1 1 0 1 1 .37-1.96m.94 41.21a1 1 0 0 1-1 1h-.04c-.55 0-1-.44-1-1s.45-1 1-1l.02.01.02-.01a1 1 0 0 1 1 1m-.99 13h-.05c-.56 0-1-.45-1-1s.44-1 1-1h.05c.55 0 1 .45 1 1s-.45 1-1 1m0-6h-.05c-.55 0-1-.44-1-1s.45-1 1-1h.05c.55 0 1 .45 1 1s-.45 1-1 1m.46-58.33-.19-.02a1 1 0 0 1-.79-1.17 1 1 0 0 1 1.17-.79c.54.1.9.63.79 1.17a1 1 0 0 1-.98.81m2.91 6.68a1 1 0 1 1 .18.02zm.42 5.17a1 1 0 0 1 1.17-.79c.55.1.9.62.8 1.17a1 1 0 0 1-.98.81q-.1 0-.19-.02a1 1 0 0 1-.8-1.17m2.2 39.48c0 .56-.45 1-1 1s-1-.44-1-1 .45-1 1-1 1 .45 1 1m-1.01 5c.55 0 1 .45 1 1s-.45 1-1 1-1-.44-1-1 .45-1 1-1m.03 8c-.55 0-1-.45-1-1s.45-1 1-1 1 .45 1 1-.45 1-1 1m.38-63.39q-.1 0-.19-.02a1 1 0 0 1-.79-1.17 1 1 0 1 1 1.96.37 1 1 0 0 1-.98.82m2.87 6.67a1 1 0 0 1-.79-1.17 1 1 0 0 1 1.17-.79c.54.1.9.63.79 1.17a1 1 0 0 1-.98.81zm.45 5.18c.1-.55.63-.9 1.17-.8s.9.63.79 1.17a1 1 0 0 1-.98.81l-.19-.01a1 1 0 0 1-.79-1.17m2.29 38.54c0 .56-.45 1-1 1s-1-.44-1-1 .44-1 1-1 1 .45 1 1m-1.03 5c.55 0 1 .45 1 1s-.45 1-1 1-1-.44-1-1 .44-1 1-1m.05 8c-.55 0-1-.45-1-1s.45-1 1-1 1 .45 1 1-.44 1-1 1m.29-62.45-.19-.02a1 1 0 0 1 .38-1.97 1 1 0 0 1-.19 1.99m2.85 6.67a1 1 0 0 1-.79-1.17c.1-.55.62-.9 1.16-.8a1 1 0 0 1 .8 1.17 1 1 0 0 1-.98.81zm.46 5.17a1 1 0 0 1 1.17-.79c.54.1.9.63.8 1.17a1 1 0 0 1-.98.81q-.1 0-.19-.02a1 1 0 0 1-.8-1.17m2.38 37.61c0 .56-.45 1-1 1s-1-.44-1-1 .45-1 1-1 1 .45 1 1m-1.05 5c.56 0 1 .45 1 1s-.44 1-1 1-1-.44-1-1 .45-1 1-1m.09 8c-.56 0-1-.45-1-1s.44-1 1-1 1 .45 1 1-.45 1-1 1m.2-61.51-.19-.02c-.54-.11-.9-.63-.8-1.17.11-.54.63-.9 1.17-.8a1 1 0 0 1-.18 1.99m2.82 6.66a1 1 0 0 1-.8-1.17c.11-.54.63-.9 1.17-.8a1 1 0 0 1-.18 1.99q-.1 0-.19-.02m.48 5.18a1 1 0 1 1 1.96.37 1 1 0 0 1-.98.82l-.19-.02a1 1 0 0 1-.79-1.17m2.46 36.67c0 .56-.45 1-1 1s-1-.44-1-1 .45-1 1-1 1 .45 1 1m-1.06 5c.55 0 1 .45 1 1s-.45 1-1 1-1-.44-1-1 .45-1 1-1m.11 8c-.55 0-1-.45-1-1s.45-1 1-1 1 .45 1 1-.45 1-1 1m.11-60.58h-.19a1 1 0 0 1-.79-1.17 1 1 0 1 1 .98 1.18Zm2.8 6.66a1 1 0 0 1-.8-1.17 1 1 0 0 1 1.17-.79c.54.1.9.62.79 1.17a1 1 0 0 1-.97.81q-.1 0-.19-.02m.49 5.19c.1-.55.63-.9 1.17-.8s.9.63.79 1.17a1 1 0 0 1-.97.81q-.1 0-.19-.02a1 1 0 0 1-.8-1.16m2.55 35.73c0 .56-.44 1-1 1s-1-.44-1-1 .45-1 1-1 1 .45 1 1m-1.08 5c.56 0 1 .45 1 1s-.44 1-1 1-1-.44-1-1 .45-1 1-1m.14 8a1 1 0 0 1-1-1 1 1 0 0 1 2.01 0 1 1 0 0 1-1.01 1m.03-59.64q-.1 0-.19-.02a1 1 0 0 1-.79-1.16 1 1 0 1 1 1.96.37 1 1 0 0 1-.98.81m2.76 6.65a1 1 0 0 1 .38-1.96c.54.1.9.63.79 1.17a1 1 0 0 1-.98.81zm.52 5.19c.1-.54.62-.9 1.17-.79a1 1 0 0 1 .79 1.17 1 1 0 0 1-1.17.79 1 1 0 0 1-.79-1.17m1.54 39.8c.55 0 1 .45 1 1s-.45 1-1 1-1-.44-1-1 .45-1 1-1m.17 8c-.55 0-1-.45-1-1s.45-1 1-1 1 .45 1 1-.45 1-1 1m2.67-52.05c-.54-.11-.9-.63-.8-1.17.11-.54.63-.9 1.17-.8a1 1 0 0 1-.18 1.99zm.53 5.19a1 1 0 0 1 1.17-.8 1 1 0 0 1 .79 1.17 1 1 0 0 1-.97.82q-.1 0-.19-.02a1 1 0 0 1-.8-1.17m1.62 38.86a1 1 0 0 1 .99 1 1 1 0 1 1-1.99 0c0-.56.44-1 1-1m.19 8c-.55 0-1-.45-1-1s.45-1 1-1 1 .45 1 1-.45 1-1 1m2.56-51.12a1 1 0 1 1 .37-1.96c.54.1.9.62.8 1.17a1 1 0 0 1-.98.81q-.1 0-.19-.02m.54 5.2a1 1 0 1 1 .99 1.18q-.1 0-.19-.02a1 1 0 0 1-.8-1.16m1.69 37.92c.55 0 1 .45 1 1s-.45 1-1 1-1-.44-1-1 .45-1 1-1m.23 8c-.56 0-1-.45-1-1s.44-1 1-1 .99.45.99 1-.44 1-.99 1m2.44-50.19a1 1 0 1 1 .37-1.96c.54.1.9.63.79 1.17a1 1 0 0 1-.97.81q-.1 0-.19-.02m.56 5.2a1 1 0 0 1 1.17-.79c.54.1.9.62.79 1.17a1 1 0 0 1-.98.81l-.19-.02a1 1 0 0 1-.79-1.17m1.76 36.99c.55 0 1 .45 1 1s-.45 1-1 1-1-.44-1-1 .44-1 1-1m.25 8c-.55 0-1-.45-1-1s.45-1 1-1 1 .45 1 1-.45 1-1 1m2.32-49.25a1 1 0 0 1-.79-1.17 1 1 0 0 1 1.17-.8c.54.1.9.63.79 1.17a1 1 0 0 1-.98.82zm.58 5.2c.11-.54.63-.9 1.17-.8.54.11.9.63.8 1.17a1 1 0 0 1-.98.81h-.19c-.54-.11-.9-.63-.8-1.17Zm1.83 36.05c.55 0 1 .45 1 1s-.45 1-1 1-1-.44-1-1 .45-1 1-1m.28 8c-.55 0-1-.45-1-1s.45-1 1-1 1 .45 1 1-.44 1-1 1m2.21-48.32a1 1 0 0 1-.8-1.17 1 1 0 0 1 1.97.37 1 1 0 0 1-1.17.8m.6 5.2a1 1 0 0 1 1.17-.79c.54.1.9.63.79 1.17a1 1 0 0 1-.98.81l-.19-.02a1 1 0 0 1-.79-1.17m.9 36.12c0-.55.44-1 1-1s1 .45 1 1-.45 1-1 1-1-.44-1-1m1.31 7c-.56 0-1-.45-1-1s.44-1 1-1 1 .45 1 1-.45 1-1 1m2.09-47.39a1 1 0 0 1-.8-1.17 1 1 0 0 1 1.17-.79c.54.1.9.63.8 1.17a1 1 0 0 1-.98.81q-.1 0-.19-.02m.61 5.21a1 1 0 0 1 1.97.38c-.1.47-.52.81-.99.81l-.18-.02a1 1 0 0 1-.8-1.17m.97 35.18c0-.55.45-1 1-1s1 .45 1 1-.44 1-1 1-1-.44-1-1m1.34 7c-.55 0-1-.45-1-1s.45-1 1-1 1 .45 1 1-.45 1-1 1m1.98-46.45a1 1 0 1 1 .37-1.97 1 1 0 0 1-.18 1.98h-.19Zm1.42 6.38a1 1 0 0 1-.79-1.17c.1-.55.62-.9 1.16-.8a1 1 0 0 1-.18 1.98zm.25 33.07c0-.55.45-1 1-1s1 .45 1 1-.45 1-1 1-1-.44-1-1m1.36 7c-.55 0-1-.45-1-1s.45-1 1-1 1 .45 1 1-.44 1-1 1m1.86-45.52a1 1 0 0 1 .38-1.97 1 1 0 0 1-.19 1.99zm1.45 6.38a1 1 0 1 1 .37-1.96c.54.1.9.63.79 1.17a1 1 0 0 1-.98.81zm.31 32.14c0-.55.45-1 1.01-1s.99.45.99 1-.44 1-.99 1-1.01-.44-1.01-1m1.4 7c-.56 0-1-.45-1-1s.44-1 1-1 1 .45 1 1-.45 1-1 1m1.74-44.59a1 1 0 0 1-.79-1.17 1 1 0 1 1 1.96.38 1 1 0 0 1-.98.81q-.1 0-.19-.02m1.46 6.39a1 1 0 0 1-.8-1.17c.11-.54.63-.9 1.17-.8a1 1 0 0 1-.18 1.99zm.39 31.2c0-.55.45-1 1-1s1 .45 1 1-.45 1-1 1-1-.44-1-1m1.42 7c-.55 0-1-.45-1-1s.45-1 1-1 1 .45 1 1-.45 1-1 1m1.63-43.65c-.54-.11-.9-.63-.8-1.17a1 1 0 0 1 1.17-.8 1 1 0 0 1 .8 1.17 1 1 0 0 1-.98.81zm1.4 6.37a1 1 0 0 1-.71-1.22c.15-.53.69-.85 1.23-.71.53.15.85.69.71 1.23-.12.44-.53.74-.97.74zm.6 22.8a1 1 0 0 1 1.37-.34c.48.28.63.89.34 1.37a1 1 0 0 1-.85.48 1 1 0 0 1-.52-.14 1 1 0 0 1-.34-1.37m-.06 7.48c0-.55.44-1 1-1s1 .45 1 1-.45 1-1 1-1-.44-1-1m1.44 7c-.55 0-.99-.45-.99-1s.44-1 .99-1 1 .45 1 1-.44 1-1 1m1.7-42.7-.19-.02a1 1 0 1 1 .19.02m1.29-6.86a1 1 0 1 1 .99 1.18q-.1 0-.19-.02a1 1 0 0 1-.8-1.16m.61 42.79a1 1 0 1 1 1.3.55 1 1 0 0 1-.38.07 1 1 0 0 1-.92-.62m1.42 6.77c-.55 0-1-.45-1-1s.45-1 1-1 1 .45 1 1-.45 1-1 1m.74-10.62c-.55 0-1-.45-1-1s.45-1 1-1 1 .45 1 1-.45 1-1 1m0-4.98c-.55 0-1-.45-1-1s.45-1 1-1 1 .44 1 1-.45 1-1 1m0-4.99c-.55 0-1-.45-1-1s.45-1 1-1 1 .45 1 1-.45 1-1 1m0-4.98a1 1 0 0 1 0-2.01 1 1 0 0 1 0 2.01m0-4.99c-.55 0-1-.45-1-1s.45-1 1-1 1 .45 1 1-.45 1-1 1m0-4.99c-.55 0-1-.44-1-1s.45-1 1-1 1 .45 1 1-.45 1-1 1m2.95-11.91a1 1 0 1 1 .38-1.96c.54.1.9.63.79 1.17a1 1 0 0 1-.97.81zm1.46 47.44-.13.01a1 1 0 0 1-.99-.87 1 1 0 0 1 .86-1.12 1 1 0 0 1 1.12.85 1 1 0 0 1-.85 1.13Zm1.59-4.12c-.55 0-1-.45-1-1s.45-1 1-1 1 .45 1 1-.45 1-1 1m0-5.01c-.55 0-1-.45-1-1s.45-1 1-1 1 .45 1 1-.45 1-1 1m0-5.01c-.55 0-1-.45-1-1s.45-1 1-1 1 .44 1 1-.45 1-1 1m0-5.02c-.55 0-1-.45-1-1s.45-1 1-1 1 .45 1 1-.45 1-1 1m0-5.01c-.55 0-1-.45-1-1s.45-1 1-1 1 .45 1 1-.45 1-1 1m0-5.02c-.55 0-1-.44-1-1s.45-1 1-1 1 .45 1 1-.45 1-1 1m0-5.01c-.55 0-1-.45-1-1s.45-1 1-1 1 .45 1 1-.45 1-1 1m0-5.01c-.55 0-1-.45-1-1s.45-1 1-1 1 .44 1 1-.45 1-1 1m0-5.02c-.55 0-1-.44-1-1s.45-1 1-1 1 .45 1 1-.45 1-1 1m147.66 98.36.15-.13.17-.09.19-.06c.32-.07.67.04.9.28q.15.14.22.32t.07.38q0 .41-.29.71-.14.14-.32.22c-.18.08-.25.07-.38.07q-.2 0-.39-.07a1 1 0 0 1-.61-.93q0-.42.29-.7M361.33 50.49h21.11v4h-21.11zm-31.34 44.25h21.11v4h-21.11zm11.63 10.75v8.17h-2v-8.17zm-43.1-51v-4h21.11v4zm-26.86 287.96q-.08.18-.22.32-.3.3-.71.3c-.41 0-.52-.11-.71-.3a1 1 0 0 1-.21-.32 1 1 0 0 1-.08-.38 1 1 0 0 1 .08-.38 1 1 0 0 1 .21-.33 1.05 1.05 0 0 1 1.42 0q.13.13.21.33.08.18.08.38c0 .2-.02.26-.07.38m-.93-4.47c-.55 0-1-.45-1-1s.45-1 1-1 1 .45 1 1-.45 1-1 1m0-5.08c-.55 0-1-.45-1-1s.45-1 1-1 1 .44 1 1-.45 1-1 1m0-5.09c-.55 0-1-.45-1-1s.45-1 1-1 1 .45 1 1-.45 1-1 1m0-5.09c-.55 0-1-.44-1-.99s.45-1.01 1-1.01 1 .45 1 1.01-.45.99-1 .99m0-5.08c-.55 0-1-.45-1-1s.45-1 1-1 1 .45 1 1-.45 1-1 1m0-5.09c-.55 0-1-.44-1-.99s.45-1.01 1-1.01 1 .45 1 1.01-.45.99-1 .99m0-5.08c-.55 0-1-.45-1-1s.45-1 1-1 1 .45 1 1-.45 1-1 1m0-5.09c-.55 0-1-.44-1-1s.45-1 1-1 1 .45 1 1-.45 1-1 1m0-5.08c-.55 0-1-.45-1-1s.45-1 1-1 1 .44 1 1-.45 1-1 1m0-5.09c-.55 0-1-.45-1-1s.45-1 1-1 1 .45 1 1-.45 1-1 1m0-5.08c-.55 0-1-.45-1-1s.45-1 1-1 1 .44 1 1-.45 1-1 1m0-5.09c-.55 0-1-.45-1-1s.45-1 1-1 1 .45 1 1-.45 1-1 1m0-5.08c-.55 0-1-.45-1-1s.45-1 1-1 1 .44 1 1-.45 1-1 1m0-5.09c-.55 0-1-.45-1-1s.45-1 1-1 1 .45 1 1-.45 1-1 1m0-5.08a1 1 0 0 1 0-2.01 1 1 0 0 1 0 2.01m0-5.09c-.55 0-1-.45-1-1s.45-1 1-1 1 .45 1 1-.45 1-1 1m0-5.09c-.55 0-1-.44-1-1s.45-1 1-1 1 .45 1 1-.45 1-1 1m0-5.08c-.55 0-1-.45-1-1s.45-1 1-1 1 .45 1 1-.45 1-1 1m0-5.09c-.55 0-1-.44-1-1s.45-1 1-1 1 .45 1 1-.45 1-1 1m0-5.08c-.55 0-1-.45-1-1s.45-1 1-1 1 .44 1 1-.45 1-1 1m0-5.09c-.55 0-1-.45-1-1s.45-1 1-1 1 .45 1 1-.45 1-1 1m0-5.08c-.55 0-1-.45-1-1s.45-1 1-1 1 .44 1 1-.45 1-1 1m.71-5.38q-.15.14-.33.22c-.18.08-.25.07-.38.07s-.26-.02-.38-.07a1 1 0 0 1-.62-.93q.01-.41.29-.71.15-.13.33-.21.27-.12.58-.06.09 0 .18.06l.18.09.15.12q.28.3.29.71c.01.41-.1.52-.29.71m6.96 116.64a1 1 0 0 1-1.3.54 1 1 0 0 1-.62-.92 1 1 0 0 1 .08-.38 1 1 0 0 1 .21-.33q.15-.13.33-.22c.37-.15.81-.06 1.09.22q.13.13.21.33.08.18.08.38c0 .2-.03.26-.08.38m-.92-4.47c-.55 0-1-.45-1-1s.45-1 1-1 1 .45 1 1-.45 1-1 1m0-5.08c-.55 0-1-.45-1-1s.45-1 1-1 1 .44 1 1-.45 1-1 1m0-5.09c-.55 0-1-.45-1-1s.45-1 1-1 1 .45 1 1-.45 1-1 1m0-5.09c-.55 0-1-.44-1-.99s.45-1.01 1-1.01 1 .45 1 1.01-.45.99-1 .99m0-5.08c-.55 0-1-.45-1-1s.45-1 1-1 1 .45 1 1-.45 1-1 1m0-5.09c-.55 0-1-.44-1-.99s.45-1.01 1-1.01 1 .45 1 1.01-.45.99-1 .99m0-5.08c-.55 0-1-.45-1-1s.45-1 1-1 1 .45 1 1-.45 1-1 1m0-5.09c-.55 0-1-.44-1-1s.45-1 1-1 1 .45 1 1-.45 1-1 1m0-5.08c-.55 0-1-.45-1-1s.45-1 1-1 1 .44 1 1-.45 1-1 1m0-5.09c-.55 0-1-.45-1-1s.45-1 1-1 1 .45 1 1-.45 1-1 1m0-5.08c-.55 0-1-.45-1-1s.45-1 1-1 1 .44 1 1-.45 1-1 1m0-5.09c-.55 0-1-.45-1-1s.45-1 1-1 1 .45 1 1-.45 1-1 1m0-5.08c-.55 0-1-.45-1-1s.45-1 1-1 1 .44 1 1-.45 1-1 1m0-5.09c-.55 0-1-.45-1-1s.45-1 1-1 1 .45 1 1-.45 1-1 1m0-5.08a1 1 0 0 1 0-2.01 1 1 0 0 1 0 2.01m0-5.09c-.55 0-1-.45-1-1s.45-1 1-1 1 .45 1 1-.45 1-1 1m0-5.09c-.55 0-1-.44-1-1s.45-1 1-1 1 .45 1 1-.45 1-1 1m0-5.08c-.55 0-1-.45-1-1s.45-1 1-1 1 .45 1 1-.45 1-1 1m0-5.09c-.55 0-1-.44-1-1s.45-1 1-1 1 .45 1 1-.45 1-1 1m0-5.08c-.55 0-1-.45-1-1s.45-1 1-1 1 .44 1 1-.45 1-1 1m0-5.09c-.55 0-1-.45-1-1s.45-1 1-1 1 .45 1 1-.45 1-1 1m0-5.08c-.55 0-1-.45-1-1s.45-1 1-1 1 .44 1 1-.45 1-1 1m.92-5.71a1 1 0 0 1-.21.33q-.3.29-.71.29c-.41 0-.52-.1-.71-.29a1 1 0 0 1-.21-.33 1 1 0 0 1-.08-.38q.01-.4.29-.71l.15-.12.18-.09.18-.06q.3-.06.58.06.18.08.33.21.28.3.29.71a1 1 0 0 1-.08.38m106.34-9.22a1.2 1.2 0 0 1-1.19 1.19h-85.81a1.2 1.2 0 0 1-1.19-1.19v-1.51c0-.66.54-1.19 1.19-1.19h85.81c.66 0 1.19.54 1.19 1.19zm18.36 126.19a1 1 0 0 1-.22.32 1 1 0 0 1-1.41 0 1 1 0 0 1-.29-.7 1 1 0 0 1 .29-.71 1.03 1.03 0 0 1 1.41 0q.15.13.22.33.07.18.07.38c0 .2-.02.26-.07.38m-.92-4.47c-.56 0-1-.45-1-1s.44-1 1-1 1 .45 1 1-.45 1-1 1m0-5.08c-.56 0-1-.45-1-1s.44-1 1-1 1 .44 1 1-.45 1-1 1m0-5.09c-.56 0-1-.45-1-1s.44-1 1-1 1 .45 1 1-.45 1-1 1m0-5.09c-.56 0-1-.44-1-.99s.44-1.01 1-1.01 1 .45 1 1.01-.45.99-1 .99m0-5.08c-.56 0-1-.45-1-1s.44-1 1-1 1 .45 1 1-.45 1-1 1m0-5.09c-.56 0-1-.44-1-.99s.44-1.01 1-1.01 1 .45 1 1.01-.45.99-1 .99m0-5.08c-.56 0-1-.45-1-1s.44-1 1-1 1 .45 1 1-.45 1-1 1m0-5.09c-.56 0-1-.44-1-1s.44-1 1-1 1 .45 1 1-.45 1-1 1m0-5.08c-.56 0-1-.45-1-1s.44-1 1-1 1 .44 1 1-.45 1-1 1m0-5.09c-.56 0-1-.45-1-1s.44-1 1-1 1 .45 1 1-.45 1-1 1m0-5.08c-.56 0-1-.45-1-1s.44-1 1-1 1 .44 1 1-.45 1-1 1m0-5.09c-.56 0-1-.45-1-1s.44-1 1-1 1 .45 1 1-.45 1-1 1m0-5.08c-.56 0-1-.45-1-1s.44-1 1-1 1 .44 1 1-.45 1-1 1m0-5.09c-.56 0-1-.45-1-1s.44-1 1-1 1 .45 1 1-.45 1-1 1m0-5.08c-.56 0-1-.45-1-1.01s.44-1 1-1 1 .45 1 1-.45 1.01-1 1.01m0-5.09c-.56 0-1-.45-1-1s.44-1 1-1 1 .45 1 1-.45 1-1 1m0-5.09c-.56 0-1-.44-1-1s.44-1 1-1 1 .45 1 1-.45 1-1 1m0-5.08c-.56 0-1-.45-1-1s.44-1 1-1 1 .45 1 1-.45 1-1 1m0-5.09c-.56 0-1-.44-1-1s.44-1 1-1 1 .45 1 1-.45 1-1 1m0-5.08c-.56 0-1-.45-1-1s.44-1 1-1 1 .44 1 1-.45 1-1 1m0-5.09c-.56 0-1-.45-1-1s.44-1 1-1 1 .45 1 1-.45 1-1 1m0-5.08c-.56 0-1-.45-1-1s.44-1 1-1 1 .44 1 1-.45 1-1 1m7.67 111.26a1 1 0 0 1-.22.32 1 1 0 0 1-1.41 0 1 1 0 0 1-.3-.7 1 1 0 0 1 .08-.38 1 1 0 0 1 .22-.33 1.03 1.03 0 0 1 1.41 0q.15.13.22.33.08.18.08.38c0 .2-.03.26-.08.38m-.92-4.47c-.56 0-1-.45-1-1s.44-1 1-1 1 .45 1 1-.45 1-1 1m0-5.08c-.56 0-1-.45-1-1s.44-1 1-1 1 .44 1 1-.45 1-1 1m0-5.09c-.56 0-1-.45-1-1s.44-1 1-1 1 .45 1 1-.45 1-1 1m0-5.09c-.56 0-1-.44-1-.99s.44-1.01 1-1.01 1 .45 1 1.01-.45.99-1 .99m0-5.08c-.56 0-1-.45-1-1s.44-1 1-1 1 .45 1 1-.45 1-1 1m0-5.09c-.56 0-1-.44-1-1s.44-1 1-1 1 .45 1 1-.45 1-1 1m0-5.08c-.56 0-1-.45-1-1s.44-1 1-1 1 .45 1 1-.45 1-1 1m0-5.09c-.56 0-1-.45-1-1s.44-1 1-1 1 .45 1 1-.45 1-1 1m0-5.08c-.56 0-1-.45-1-1s.44-1 1-1 1 .44 1 1-.45 1-1 1m0-5.09c-.56 0-1-.45-1-1s.44-1 1-1 1 .45 1 1-.45 1-1 1m0-5.08c-.56 0-1-.45-1-1s.44-1 1-1 1 .44 1 1-.45 1-1 1m0-5.09c-.56 0-1-.45-1-1s.44-1 1-1 1 .45 1 1-.45 1-1 1m0-5.08c-.56 0-1-.45-1-1s.44-1 1-1 1 .44 1 1-.45 1-1 1m0-5.09c-.56 0-1-.45-1-1s.44-1 1-1 1 .45 1 1-.45 1-1 1m0-5.09c-.56 0-1-.44-1-.99s.44-1.01 1-1.01 1 .45 1 1.01-.45.99-1 .99m0-5.08c-.56 0-1-.45-1-1s.44-1 1-1 1 .45 1 1-.45 1-1 1m0-5.09c-.56 0-1-.44-1-1s.44-1 1-1 1 .45 1 1-.45 1-1 1m0-5.08c-.56 0-1-.45-1-1s.44-1 1-1 1 .45 1 1-.45 1-1 1m0-5.09c-.56 0-1-.44-1-1s.44-1 1-1 1 .45 1 1-.45 1-1 1m0-5.08c-.56 0-1-.45-1-1s.44-1 1-1 1 .45 1 1-.45 1-1 1m0-5.09c-.56 0-1-.45-1-1s.44-1 1-1 1 .45 1 1-.45 1-1 1m0-5.08c-.56 0-1-.45-1-1s.44-1 1-1 1 .44 1 1-.45 1-1 1m.92-5.71a1 1 0 0 1-.22.33q-.28.29-.7.29c-.42 0-.52-.1-.71-.29q-.14-.14-.22-.33a1 1 0 0 1-.07-.38q0-.41.29-.7l.15-.13.17-.09.19-.06q.3-.06.58.06.1.03.17.09.09.06.15.13a1 1 0 0 1 .22 1.08m79.35-115.87a1 1 0 1 1 .37 1.96l-.19.02a1 1 0 0 1-.18-1.98m.2 46.68c.55 0 1 .45 1 1s-.45 1-1 1-1-.44-1-1 .44-1 1-1m-5.13-45.74a1 1 0 0 1 1.17.79 1 1 0 0 1-.79 1.17l-.19.02a1 1 0 0 1-.98-.81 1 1 0 0 1 .79-1.17m.12 45.74c.56 0 1 .45 1 1s-.44 1-1 1-1-.44-1-1 .45-1 1-1m-5.04-44.8a1 1 0 0 1 1.16.79 1 1 0 0 1-.79 1.17l-.19.02a1 1 0 0 1-.98-.81 1 1 0 0 1 .8-1.17m.04 44.8c.55 0 1 .45 1 1s-.45 1-1 1-1-.44-1-1 .45-1 1-1m-4.97-43.87a1 1 0 0 1 1.17.8 1 1 0 0 1-.79 1.17l-.19.02a1 1 0 0 1-.19-1.99m-.03 43.87c.55 0 1 .45 1 1s-.45 1-1 1-1-.44-1-1 .45-1 1-1m-4.89-42.93a1 1 0 0 1 1.17.8c.1.54-.26 1.06-.8 1.17l-.19.01a1 1 0 0 1-.98-.81 1 1 0 0 1 .8-1.17m-.12 42.93c.56 0 1.01.45 1.01 1s-.45 1-1.01 1-1-.44-1-1 .45-1 1-1m-4.81-41.99a1 1 0 0 1 .38 1.97l-.19.01a1 1 0 0 1-.98-.81 1 1 0 0 1 .79-1.17m-.19 41.99c.56 0 1 .45 1 1s-.44 1-1 1-1-.44-1-1 .45-1 1-1m-4.73-41.05a1 1 0 0 1 1.16.79 1 1 0 0 1-.79 1.17q-.09.02-.19.02a1 1 0 0 1-.18-1.98m-.27 41.05c.55 0 1 .45 1 1s-.45 1-1 1-1-.44-1-1 .45-1 1-1m-4.66-40.11a1 1 0 0 1 1.17.79 1 1 0 0 1-.79 1.17l-.19.02a1 1 0 0 1-.98-.81 1 1 0 0 1 .79-1.17m-.34 40.11c.55 0 1 .45 1 1s-.45 1-1 1-1-.44-1-1 .45-1 1-1m-4.58-39.17a1 1 0 0 1 1.17.79 1 1 0 0 1-.99 1.19 1 1 0 0 1-.98-.82 1 1 0 0 1 .8-1.16m-.43 39.17c.56 0 1.01.45 1.01 1s-.45 1-1.01 1-1-.44-1-1 .45-1 1-1m-4.5-38.24a1 1 0 0 1 .38 1.97l-.19.02a1 1 0 0 1-.19-1.99m-.5 38.24c.55 0 1 .45 1 1s-.45 1-1 1-1-.44-1-1 .45-1 1-1m-4.43-37.3c.55-.1 1.07.26 1.18.8s-.26 1.06-.8 1.17l-.19.01a1 1 0 0 1-.19-1.98m-.51 16.38c.55 0 1 .44 1 1s-.45 1-1 1-1-.45-1-1 .45-1 1-1m0 12c-.55 0-1-.45-1-1s.45-1 1-1 1 .45 1 1-.45 1-1 1m1 4.01a1 1 0 0 1-1 1 1 1 0 0 1 0-2.01 1 1 0 0 1 1 1.01m-1-9.01c-.55 0-1-.45-1-1s.45-1 1-1 1 .45 1 1-.45 1-1 1m-6.98-13.74a1 1 0 1 1 1.99.25 1 1 0 0 1-.99.87l-.13-.01a1 1 0 0 1-.87-1.11m.98 4.12c.55 0 1 .44 1 1s-.45 1-1 1-1-.45-1-1 .45-1 1-1m0 4.98c.55 0 1 .45 1 1s-.45 1-1 1-1-.45-1-1 .45-1 1-1m0 4.99c.55 0 1 .45 1 1s-.45 1-1 1-1-.45-1-1 .45-1 1-1m0 4.98c.55 0 1 .45 1 1s-.45 1-1 1-1-.45-1-1 .45-1 1-1m0 4.99c.55 0 1 .45 1 1s-.45 1-1 1-1-.45-1-1 .45-1 1-1m-6-28.64c.55 0 1 .44 1 1s-.45 1-1 1-1-.45-1-1 .45-1 1-1m0 5.01c.55 0 1 .45 1 1s-.45 1-1 1-1-.45-1-1 .45-1 1-1m0 5.01c.55 0 1 .45 1 1s-.45 1-1 1-1-.45-1-1 .45-1 1-1m0 5.02c.55 0 1 .45 1 1s-.45 1-1 1-1-.45-1-1 .45-1 1-1m0 5.01c.55 0 1 .45 1 1s-.45 1-1 1-1-.45-1-1 .45-1 1-1m0 5.01c.55 0 1 .45 1 1s-.45 1-1 1-1-.44-1-1 .45-1 1-1m0 5.02c.55 0 1 .44 1 1s-.45 1-1 1-1-.45-1-1 .45-1 1-1m0 5.01c.55 0 1 .45 1 1s-.45 1-1 1-1-.45-1-1 .45-1 1-1m0 7.01c-.55 0-1-.44-1-1s.45-1 1-1 1 .45 1 1-.45 1-1 1m1.73 4.13-.13-.01a1 1 0 0 1-.86-1.13 1 1 0 0 1 1.12-.86 1 1 0 0 1-.13 2m1.31-47.45-.19.02a1 1 0 1 1 .98-1.19 1 1 0 0 1-.79 1.17m1.96 35.85c0-.56.45-1.01 1-1.01s1 .45 1 1.01-.45.99-1 .99-1-.44-1-.99m1.74 11.61c-.55 0-.99-.44-.99-1s.44-1 .99-1 1 .45 1 1-.44 1-1 1m1.43-6.77c-.16.39-.54.63-.93.63q-.19 0-.38-.08a1 1 0 0 1-.55-1.3 1 1 0 0 1 1.31-.55 1 1 0 0 1 .55 1.3m-.21-41.63q-.09.03-.18.02a1 1 0 0 1-.98-.81c-.11-.54.25-1.07.79-1.17s1.07.25 1.17.8a1 1 0 0 1-.8 1.16m2.09 5.7a1 1 0 0 1-.98-.81 1 1 0 0 1 .8-1.17 1 1 0 0 1 1.16.79 1 1 0 0 1-.79 1.17zm1.71 42.7c-.55 0-1-.44-1-1s.45-1 1-1 1 .45 1 1-.45 1-1 1m.45-6c-.56 0-1-.44-1-1s.44-1 1-1 1 .45 1 1-.45 1-1 1m.59-7.11a1 1 0 0 1-.51.15c-.34 0-.67-.18-.86-.49a1 1 0 0 1 .34-1.37 1 1 0 1 1 1.03 1.71m.94-24.16-.26.03a1 1 0 1 1 .96-1.26c.14.53-.17 1.08-.7 1.23m1.21-6.37a1 1 0 1 1 .98-1.18 1 1 0 0 1-.79 1.17zm1.82 43.64c-.55 0-1-.44-1-1s.45-1 1-1 1 .45 1 1-.45 1-1 1m.42-6c-.55 0-1-.44-1-1s.45-1 1-1 1 .45 1 1-.45 1-1 1m1.39-32.2-.19.02a1 1 0 0 1-.98-.81 1 1 0 0 1 .79-1.17 1 1 0 0 1 1.17.79 1 1 0 0 1-.79 1.17m1.46-6.39-.19.02a1 1 0 0 1-.98-.81c-.11-.54.25-1.07.79-1.17s1.07.25 1.17.79a1 1 0 0 1-.79 1.17m1.74 44.59c-.55 0-1-.44-1-1s.45-1 1-1 1 .45 1 1-.44 1-1 1m.4-6c-.56 0-1-.44-1-1s.44-1 1-1 1 .45 1 1-.45 1-1 1m1.31-33.14-.19.02a1 1 0 1 1 .98-1.19 1 1 0 0 1-.79 1.17m1.44-6.38-.19.02a1 1 0 0 1-.18-1.98 1 1 0 0 1 1.17.79 1 1 0 0 1-.8 1.17m1.87 45.52c-.55 0-1-.44-1-1s.45-1 1-1 1 .45 1 1-.45 1-1 1m.36-6c-.55 0-1-.44-1-1s.45-1 1-1 1 .45 1 1-.44 1-1 1m1.24-34.07-.18.02a1 1 0 0 1-.19-1.99 1 1 0 0 1 1.17.8 1 1 0 0 1-.8 1.17m1.43-6.38h-.19a1 1 0 0 1-.98-.81 1 1 0 0 1 .8-1.17 1 1 0 0 1 1.16.8 1 1 0 0 1-.79 1.17Zm1.98 46.45c-.55 0-1-.44-1-1s.45-1 1-1 1 .45 1 1-.45 1-1 1m.34-6c-.55 0-1-.44-1-1s.45-1 1-1 1 .45 1 1-.45 1-1 1m1.17-35.01-.19.02a1 1 0 0 1-.98-.81 1 1 0 0 1 .8-1.17 1 1 0 0 1 1.16.79 1 1 0 0 1-.79 1.17m1.41-6.38-.19.02a1 1 0 0 1-.98-.81 1 1 0 0 1 .79-1.17 1 1 0 0 1 1.17.79 1 1 0 0 1-.79 1.17m2.1 47.39c-.56 0-1-.44-1-1s.44-1 1-1 1 .45 1 1-.45 1-1 1m.3-6c-.55 0-.99-.44-.99-1s.44-1 .99-1 1.01.45 1.01 1-.45 1-1.01 1m1.1-35.95q-.09.03-.19.02a1 1 0 0 1-.97-.81 1 1 0 0 1 .79-1.17 1 1 0 0 1 1.17.8 1 1 0 0 1-.8 1.16m1.4-6.37-.19.02a1 1 0 0 1-.98-.81 1 1 0 0 1 .79-1.17 1 1 0 0 1 1.17.79 1 1 0 0 1-.79 1.17m2.21 48.32c-.55 0-1-.44-1-1s.45-1 1-1 1 .45 1 1-.45 1-1 1m.28-6c-.55 0-1-.44-1-1s.45-1 1-1 1 .45 1 1-.45 1-1 1m1.03-36.88-.19.02a1 1 0 0 1-.19-1.99 1 1 0 0 1 .38 1.97m1.37-6.37-.18.02c-.48 0-.89-.34-.99-.82-.1-.54.26-1.06.8-1.17a1 1 0 0 1 1.17.8 1 1 0 0 1-.8 1.17m2.33 49.25c-.55 0-1-.44-1-1s.45-1 1-1 1 .45 1 1-.45 1-1 1m.26-6c-.56 0-1-.44-1-1s.44-1 1-1 1 .45 1 1-.45 1-1 1m.95-37.82-.18.02a1 1 0 0 1-.99-.81 1 1 0 0 1 1.97-.38 1 1 0 0 1-.8 1.17m1.36-6.36h-.18a1 1 0 0 1-.19-1.98 1 1 0 0 1 1.17.79c.1.55-.26 1.07-.8 1.18Zm2.45 50.18c-.55 0-1-.44-1-1s.45-1 1-1 1 .45 1 1-.45 1-1 1m.22-6c-.55 0-1-.44-1-1s.45-1 1-1 1 .45 1 1-.45 1-1 1m.89-38.75-.19.01a1 1 0 0 1-.98-.81 1 1 0 0 1 .79-1.17 1 1 0 0 1 1.17.8 1 1 0 0 1-.79 1.17m1.34-6.37-.19.02a1 1 0 0 1-.98-.81 1 1 0 0 1 .8-1.17 1 1 0 0 1 1.16.79 1 1 0 0 1-.79 1.17m2.56 51.12c-.55 0-1-.44-1-1s.45-1 1-1 1 .45 1 1-.45 1-1 1m.2-6c-.55 0-1-.44-1-1s.45-1 1-1 1 .45 1 1-.45 1-1 1m.81-39.69-.19.02a1 1 0 0 1-.18-1.99 1 1 0 1 1 .37 1.97m1.33-6.36-.19.02a1 1 0 0 1-.19-1.99 1 1 0 0 1 .38 1.97m2.67 52.05c-.55 0-1-.44-1-1s.45-1 1-1 1 .45 1 1-.44 1-1 1m.17-6c-.55 0-1-.44-1-1s.45-1 1-1 1 .45 1 1-.45 1-1 1m.75-40.63-.19.02a1 1 0 0 1-.98-.81 1 1 0 0 1 .79-1.17c.54-.11 1.07.25 1.17.79s-.25 1.07-.79 1.17m1.3-6.36q-.09.02-.19.02a1 1 0 0 1-.98-.81 1 1 0 1 1 1.97-.37 1 1 0 0 1-.8 1.16m2.58-8.63a1 1 0 1 1 .38 1.96q-.1.03-.19.02a1 1 0 0 1-.98-.81 1 1 0 0 1 .79-1.17m.28 47.62c.55 0 1 .45 1 1s-.45 1-1 1-1-.44-1-1 .45-1 1-1m-.06 14c-.55 0-1-.44-1-1s.45-1 1-1 1 .45 1 1-.45 1-1 1m.14-6c-.55 0-1-.44-1-1s.45-1 1-1 1 .45 1 1-.45 1-1 1m.67-41.56-.19.01a1 1 0 0 1-.98-.81 1 1 0 0 1 .8-1.17 1 1 0 0 1 1.17.8c.1.54-.26 1.06-.8 1.17m1.29-6.36-.19.02a1 1 0 0 1-.98-.81 1 1 0 0 1 .8-1.17 1 1 0 0 1 1.17.79 1 1 0 0 1-.8 1.17m2.61-8.64a1 1 0 0 1 1.17.8c.1.54-.26 1.06-.8 1.17h-.19a1 1 0 0 1-.18-1.98Zm.35 48.56c.56 0 1 .45 1 1s-.44 1-1 1-1-.44-1-1 .45-1 1-1m-.05 14c-.55 0-1-.44-1-1s.45-1 1-1 1 .45 1 1-.45 1-1 1m.11-6c-.55 0-1-.44-1-1s.45-1 1-1 1 .45 1 1-.45 1-1 1m.6-42.5-.19.02a1 1 0 0 1-.97-.81 1 1 0 0 1 .79-1.17c.54-.11 1.07.25 1.17.79s-.25 1.07-.8 1.17m1.28-6.35-.19.02a1 1 0 0 1-.19-1.99 1 1 0 0 1 .38 1.97m2.63-8.65a1 1 0 0 1 1.17.8 1 1 0 0 1-.79 1.17l-.19.02a1 1 0 0 1-.19-1.99m.43 49.5c.56 0 1.01.45 1.01 1s-.45 1-1.01 1-1-.44-1-1 .45-1 1-1m-.03 14c-.56 0-1-.44-1-1s.44-1 1-1 1 .45 1 1-.45 1-1 1m.08-6c-.55 0-1-.44-1-1s.45-1 1-1 1 .45 1 1-.45 1-1 1m.53-43.44-.19.02a1 1 0 0 1-.98-.81 1 1 0 1 1 1.96-.38 1 1 0 0 1-.79 1.17m1.26-6.35q-.1.03-.19.02a1 1 0 0 1-.98-.81 1 1 0 0 1 .79-1.17 1 1 0 0 1 .38 1.96m2.66-8.65c.54-.1 1.06.26 1.17.8a1 1 0 0 1-.8 1.17l-.19.02a1 1 0 0 1-.18-1.99m.51 50.44c.55 0 1 .45 1 1s-.45 1-1 1-1-.44-1-1 .44-1 1-1m-.03 14c-.55 0-1-.44-1-1s.45-1 1-1 1 .45 1 1-.45 1-1 1m.06-6a1 1 0 1 1 0-2c.56 0 .99.45.99 1s-.44 1-.99 1m.45-44.37-.19.02a1 1 0 1 1 .19-.02m1.24-6.35-.19.02a1 1 0 0 1-.98-.81 1 1 0 0 1 1.97-.38 1 1 0 0 1-.8 1.17m1.9-7.48a1 1 0 0 1 .79-1.17c.54-.11 1.07.25 1.17.79s-.25 1.07-.79 1.17l-.19.02a1 1 0 0 1-.98-.81m1.36 64.2c-.55 0-1-.44-1-1s.45-1 1-1 1 .45 1 1-.45 1-1 1m.03-6c-.55 0-1-.44-1-1s.45-1 1-1 1 .45 1 1-.45 1-1 1m-1.01-7c0-.55.45-1 1-1s1 .45 1 1-.45 1-1 1-1-.44-1-1m1.4-38.31-.19.02a1 1 0 0 1-.98-.81 1 1 0 0 1 .79-1.17 1 1 0 0 1 1.17.79 1 1 0 0 1-.79 1.17m1.22-6.34-.19.02a1 1 0 0 1-.18-1.99c.54-.1 1.06.26 1.17.8a1 1 0 0 1-.8 1.17m1.92-7.49a1 1 0 0 1 .8-1.17 1 1 0 1 1 .18 1.98 1 1 0 0 1-.98-.81m1.5 65.14h-.04c-.56 0-1-.44-1-1s.44-1 1-1h.04l.03.01c.54 0 .97.45.97.99s-.45 1-1 1m0-6h-.04c-.56 0-1-.44-1-1s.44-1 1-1h.04c.55 0 1 .45 1 1s-.45 1-1 1m.04-6h-.08c-.55 0-1-.44-1-1s.45-1 1-1h.04l.04.01c.53.02.96.46.96.99s-.43.98-.96 1m.23-40.25-.19.02a1 1 0 0 1-.18-1.98 1 1 0 0 1 1.17.79 1 1 0 0 1-.8 1.17m1.21-6.33-.19.01a1 1 0 0 1-.98-.81 1 1 0 1 1 1.96-.37 1 1 0 0 1-.79 1.17m1.95-7.5a1 1 0 0 1 .79-1.17 1 1 0 0 1 .38 1.96l-.19.02a1 1 0 0 1-.98-.81m1.09 50.94a1 1 0 1 1 .62 1.9 1 1 0 0 1-.62-1.9m.05 6.3a1 1 0 0 1 1.26.64 1 1 0 0 1-.95 1.31 1 1 0 0 1-.31-1.95m.64 8.17q-.12.03-.25.03a1 1 0 0 1-.97-.75 1 1 0 0 1 .72-1.21 1 1 0 0 1 1.22.71 1 1 0 0 1-.72 1.22m-.02-52.51-.19.02a1 1 0 0 1-.19-1.99 1 1 0 0 1 .38 1.97m1.19-6.34q-.1.03-.19.02a1 1 0 0 1-.98-.81c-.11-.54.25-1.07.79-1.17s1.07.25 1.17.79a1 1 0 0 1-.79 1.17m113.58-92.99a1 1 0 1 1 1.26 1.56 1 1 0 0 1-1.26-1.56m-3.89 3.16a1 1 0 0 1 1.4.15 1 1 0 0 1-.15 1.4 1 1 0 0 1-1.4-.14 1 1 0 0 1 .15-1.41m-.88 14.14c.09.54-.27 1.06-.82 1.16h-.17a1 1 0 0 1-.99-.83h.01a1 1 0 0 1 .81-1.15 1 1 0 0 1 1.15.81Zm-1.08 5.27a1 1 0 0 1-.97.75q-.12 0-.25-.03a1 1 0 0 1-.71-1.22 1 1 0 1 1 1.93.5m-1.94-16.26a1 1 0 0 1 1.4.15c.35.43.28 1.06-.14 1.41a1 1 0 0 1-1.41-.15 1 1 0 0 1 .15-1.41m-.02 19.87a1 1 0 0 1 .72 1.22 1 1 0 0 1-1.22.72 1 1 0 1 1 .5-1.94M620.43 83.3c.14-.53.68-.85 1.22-.72.53.14.85.68.72 1.22a1 1 0 0 1-1.22.72 1 1 0 0 1-.72-1.22m.69 5.33a1 1 0 0 1-1.21.72 1 1 0 0 1 .49-1.94 1 1 0 0 1 .72 1.22m1.27-28.99a1 1 0 0 1-.96.76l-.25-.04a1 1 0 0 1-.72-1.21 1 1 0 1 1 1.93.49m-.68-5.34a1 1 0 0 1 1.21-.72 1 1 0 1 1-.5 1.94 1 1 0 0 1-.71-1.22m-.04 24.17a1 1 0 1 1 1.94.5 1 1 0 0 1-1.94-.5m1.25-4.82a1 1 0 1 1 .97 1.25l-.25-.04a1 1 0 0 1-.72-1.21m1.24-4.83c.14-.54.68-.86 1.22-.72s.86.68.72 1.22a1 1 0 0 1-1.94-.5m1.96-3.61a1 1 0 0 1-.71-1.22 1 1 0 1 1 1.93.5 1 1 0 0 1-1.22.72m.53-6.05a1 1 0 0 1 1.22-.72c.53.14.85.68.72 1.22a1 1 0 0 1-1.94-.5m1.24-4.83a1 1 0 1 1 .97 1.25q-.12 0-.25-.03a1 1 0 0 1-.72-1.22m1.25-4.82a1 1 0 0 1 1.94.49 1 1 0 0 1-.97.75q-.13 0-.25-.03a1 1 0 0 1-.72-1.21m1.42-15.56c.34.43.28 1.06-.15 1.41a1 1 0 0 1-1.41-.15 1 1 0 1 1 1.56-1.26m-2.84-6.7a1 1 0 0 1 1.41.14c.34.43.28 1.06-.15 1.41a1 1 0 0 1-1.41-.15 1 1 0 0 1 .15-1.4m-1.04 9.84a1 1 0 1 1-1.56 1.26 1 1 0 0 1 1.56-1.26m-2.86-6.69a1 1 0 0 1 1.41.15 1 1 0 0 1-.15 1.4q-.3.23-.63.23a1 1 0 0 1-.63-1.78m-.59 20.1a1 1 0 0 1-1.71-1.04 1 1 0 0 1 1.37-.33c.48.28.63.9.34 1.37m-.43-10.28c.35.43.28 1.06-.14 1.41a1 1 0 0 1-1.41-.15 1 1 0 0 1 .15-1.4 1 1 0 0 1 1.4.14m-2.88-6.67a1 1 0 1 1 1.26 1.56 1 1 0 0 1-1.26-1.56m-.71 30.44a1 1 0 0 1 1.94.5 1 1 0 0 1-1.22.72 1 1 0 0 1-.72-1.22m.69 5.34a1 1 0 0 1-.97.75q-.12 0-.25-.03a1 1 0 1 1 .5-1.93 1 1 0 0 1 .72 1.21m-1.97 3.63a1 1 0 1 1-.5 1.93 1 1 0 0 1 .5-1.93m-.45-21.99a1 1 0 1 1 .63 1.77 1 1 0 0 1-.78-.37 1 1 0 0 1 .15-1.4m1.45-7.61a1 1 0 1 1-1.56 1.26 1 1 0 0 1 1.56-1.26m-2.9-6.66a1 1 0 1 1 1.25 1.56 1 1 0 0 1-1.25-1.56m-.56 41.82a1 1 0 0 1 1.21-.72 1 1 0 0 1-.25 1.97q-.12 0-.25-.03a1 1 0 0 1-.71-1.22m.68 5.35a1 1 0 0 1-.96.75q-.13 0-.25-.03a1 1 0 1 1 .5-1.94 1 1 0 0 1 .71 1.22m-1.96 3.62c.53.14.85.69.72 1.22-.12.45-.53.75-.97.75q-.12 0-.25-.03a1 1 0 0 1-.72-1.22c.14-.53.68-.85 1.22-.72m-.6-33.38a1 1 0 1 1 1.25 1.56 1 1 0 0 1-1.25-1.56m1.46-7.62a1 1 0 0 1-.78 1.63 1 1 0 0 1-.77-.37 1 1 0 0 1 .15-1.4 1 1 0 0 1 1.4.14m-2.92-6.63a1 1 0 0 1 1.4.15 1 1 0 1 1-1.4-.15m-.41 53.2a1 1 0 1 1 .97 1.25q-.12.01-.25-.04a1 1 0 0 1-.72-1.21m.69 5.34a1 1 0 0 1-.97.75q-.12 0-.25-.03a1 1 0 0 1-.72-1.22 1 1 0 0 1 1.22-.72 1 1 0 0 1 .72 1.22m-1.95 3.63c.52.18.81.74.64 1.26a1 1 0 0 1-.95.69q-.16.01-.31-.05a1 1 0 0 1-.64-1.26 1 1 0 0 1 1.26-.64m-.76-44.77a1 1 0 0 1 1.4.15c.35.43.28 1.06-.14 1.41q-.3.22-.63.22a1 1 0 0 1-.63-1.78m1.47-7.63a1 1 0 0 1-.14 1.41 1 1 0 0 1-1.41-.15 1 1 0 0 1 .15-1.41 1 1 0 0 1 1.4.15m-2.94-6.62a1 1 0 1 1 1.26 1.56 1 1 0 0 1-1.26-1.56m-1.05 63.95a1 1 0 1 1 .3 1.38c-.46-.3-.59-.92-.3-1.38m-.74-44.78a1 1 0 0 1-.78-.37 1 1 0 0 1 .15-1.4 1 1 0 1 1 .63 1.77m.86-9.41a1 1 0 0 1-.15 1.4q-.3.23-.63.23a1 1 0 0 1-.78-.38 1 1 0 0 1 1.56-1.25m-2.97-6.61a1 1 0 0 1 1.41.15c.34.43.28 1.06-.15 1.41a1 1 0 0 1-1.41-.15 1 1 0 0 1 .15-1.41m-.22 64.54a1 1 0 0 1 1.41-.09c.42.37.45 1 .09 1.42a1 1 0 0 1-1.42.08 1 1 0 0 1-.08-1.41m-.69-54.8a1 1 0 0 1-.77 1.63 1 1 0 0 1-.63-1.78 1 1 0 0 1 1.4.15m-1.65 9.06a1 1 0 0 1 .15-1.41 1 1 0 1 1 .63 1.78c-.29 0-.58-.13-.78-.37m.51 50.81a1 1 0 0 1-.74.33 1 1 0 1 1 .66-1.74 1 1 0 0 1 .08 1.41m-1.85-66.45a1 1 0 0 1 1.41.15.99.99 0 0 1-.78 1.62 1 1 0 0 1-.63-1.77m-.88 9.72a1 1 0 0 1-.15 1.4q-.3.23-.63.23a1 1 0 1 1 .78-1.63m-.89 9.44a1 1 0 0 1-.78-.38c-.35-.43-.28-1.05.15-1.4s1.06-.28 1.4.15a1 1 0 0 1-.77 1.63m.3 51.03a1 1 0 0 1-.74.33 1 1 0 1 1 .66-1.74 1 1 0 0 1 .08 1.41m-2.43-67.04a1 1 0 0 1 1.41.15 1 1 0 0 1-.15 1.4 1 1 0 0 1-1.4-.14 1 1 0 0 1 .14-1.41m-2.38 69.45a1 1 0 1 1 1.49 1.33 1 1 0 0 1-.75.34 1 1 0 0 1-.66-.26 1 1 0 0 1-.08-1.41m-.01-52.08a1 1 0 0 1 1.26 1.56 1 1 0 0 1-1.41-.15 1 1 0 0 1 .15-1.41m1.53-7.67a1 1 0 0 1-.78 1.63 1 1 0 0 1-.77-.37 1 1 0 0 1 1.55-1.26m-3.03-6.55a1 1 0 1 1 1.25 1.56 1 1 0 0 1-.63.22 1 1 0 0 1-.62-1.78m-.32 71.37q-.32.33-.75.34a1 1 0 0 1-.66-.26 1 1 0 1 1 1.33-1.49 1 1 0 0 1 .08 1.41M590.1 74.4a1 1 0 1 1 1.56-1.26 1 1 0 0 1-.15 1.4 1 1 0 0 1-.63.23c-.29 0-.58-.13-.78-.37m1.69-9.09a1 1 0 0 1-.14 1.41 1 1 0 0 1-1.41-.15 1 1 0 0 1 .15-1.41 1 1 0 0 1 1.4.15m-3.05-6.53a1 1 0 0 1 1.41.14c.34.43.28 1.06-.15 1.41a1 1 0 0 1-1.41-.15 1 1 0 0 1 .15-1.4m-.82 9.66a1 1 0 1 1-1.56 1.26 1 1 0 0 1 .15-1.4 1 1 0 0 1 1.41.14m-.3 9.25a1 1 0 0 1-1.41-.15 1 1 0 0 1 .15-1.4 1 1 0 0 1 1.41.14c.34.43.28 1.06-.15 1.41m-2.78-15.76a1 1 0 0 1 1.41.15 1 1 0 0 1-.15 1.4q-.3.23-.63.23c-.29 0-.58-.13-.78-.37a1 1 0 0 1 .15-1.41m-.8 9.65a1 1 0 0 1-.78 1.63 1 1 0 0 1-.62-1.78 1 1 0 0 1 1.4.15m-3.1-6.5a1 1 0 1 1 1.26 1.56 1 1 0 0 1-1.26-1.56m-.23 71.19a1 1 0 0 1 1.37.35 1 1 0 1 1-1.72 1.02 1 1 0 0 1 .35-1.37m-.54-61.56c.34.43.28 1.07-.15 1.41a1 1 0 0 1-1.41-.15 1 1 0 0 1 .15-1.4 1 1 0 0 1 1.41.14m-3.12-6.47a1 1 0 1 1 .63 1.77 1 1 0 0 1-.78-.37 1 1 0 0 1 .15-1.4m.45 70.35a1 1 0 0 1-.94 1.31 1 1 0 0 1-.32-1.95 1 1 0 0 1 1.26.64m-1.21-60.74a1 1 0 0 1-.78 1.63 1 1 0 0 1-.63-1.78 1 1 0 0 1 1.41.15m-3.88 3.14a1 1 0 1 1-1.4-.15 1 1 0 0 1 1.4.15m.34 59.16a1 1 0 1 1-1.9.64 1 1 0 0 1 1.9-.64M557.55 84a1 1 0 1 1 1.26 1.56 1 1 0 0 1-1.26-1.56m.31 62.11q-.16.05-.31.05a1 1 0 0 1-.95-.69 1 1 0 0 1 .64-1.26 1 1 0 0 1 1.26.63 1 1 0 0 1-.64 1.27m-.95-52.58a1 1 0 0 1-.15 1.4 1 1 0 0 1-1.41-.14 1 1 0 1 1 1.56-1.26m-3.88 3.13c.35.43.28 1.06-.14 1.41a1 1 0 0 1-1.41-.15 1 1 0 0 1 .15-1.41 1 1 0 0 1 1.4.15m-24.43 5.44a1 1 0 0 1 1.17.8c.1.54-.26 1.06-.8 1.17h-.19a1 1 0 0 1-.18-1.98Zm.12 51.49a1 1 0 0 1 1.26.64 1 1 0 0 1-.94 1.31c-.42 0-.82-.27-.96-.69a1 1 0 0 1 .64-1.26m.03 6.31a1 1 0 0 1 1.27.63 1.02 1.02 0 0 1-.95 1.32 1 1 0 0 1-.95-.69 1 1 0 0 1 .63-1.26m.75 8.17a1 1 0 1 1-.63-1.9 1 1 0 0 1 .63 1.9m.05-51.9-.19.02a1 1 0 0 1-.98-.81 1 1 0 0 1 .79-1.17 1 1 0 0 1 1.17.79 1 1 0 0 1-.79 1.17m1.17-6.33-.19.02a1 1 0 0 1-.18-1.98 1 1 0 0 1 1.17.79 1 1 0 0 1-.8 1.17m2.61-8.92a1 1 0 1 1 .62 1.9 1 1 0 0 1-.62-1.9m.14 51.1c.53-.17 1.09.12 1.27.64a1 1 0 0 1-.95 1.32 1 1 0 0 1-.32-1.96m.02 6.32a1 1 0 0 1 1.26.64 1 1 0 0 1-.95 1.31 1 1 0 0 1-.31-1.95m.77 8.17q-.15.05-.31.05a1 1 0 0 1-.95-.69 1 1 0 0 1 1.9-.63c.17.53-.12 1.09-.64 1.27m.25-51.36-.25.03a1 1 0 1 1 .25-.03m1.16-6.58q-.16.05-.31.05a1 1 0 1 1 .31-.05m1.7-8.19a1 1 0 1 1 1.78-.9 1 1 0 0 1-1.78.9m.86 50.08a1 1 0 0 1 1.26.64 1 1 0 0 1-.95 1.31 1 1 0 0 1-.31-1.95m-.01 6.32a1 1 0 0 1 1.27.64 1 1 0 1 1-1.9.62 1 1 0 0 1 .63-1.26m.8 8.16q-.16.05-.31.05a1 1 0 0 1-.95-.69 1 1 0 1 1 1.26.64m.36-51.32a1 1 0 0 1-.35.07 1 1 0 0 1-.93-.65 1 1 0 0 1 1.87-.71 1 1 0 0 1-.59 1.29m1.04-6.95a1 1 0 1 1-.87-1.8 1 1 0 0 1 .87 1.8m1.55-10.15a1 1 0 0 1 1.4.24 1 1 0 0 1-.24 1.39 1 1 0 0 1-.58.18 1 1 0 0 1-.58-1.81m1.01 52.38a1 1 0 0 1 1.26.64 1 1 0 0 1-.95 1.31 1 1 0 0 1-.31-1.95m-.65 7.58a1 1 0 1 1 1.89-.62 1 1 0 0 1-.95 1.31 1 1 0 0 1-.94-.69m1.45 6.89a1 1 0 0 1-1.26-.64 1 1 0 1 1 1.26.64m.28-51.81a1 1 0 0 1-.45.11 1 1 0 0 1-.89-.55 1 1 0 1 1 1.34.44m.82-7.36a1 1 0 0 1-1.38-.31 1 1 0 1 1 1.38.31m.83-9.33a1 1 0 1 1 1.56-1.26 1 1 0 0 1-1.56 1.26m1.69 12.47a1 1 0 0 1 1.09 1.67 1 1 0 0 1-.55.16 1 1 0 0 1-.54-1.83m1.59 40.63a1 1 0 0 1-.95 1.31 1 1 0 0 1-.95-.68 1 1 0 0 1 1.9-.63m-1.93 6.95a1 1 0 1 1 1.9-.62 1 1 0 1 1-1.9.62m1.49 6.89q-.16.05-.32.05a1 1 0 1 1 .32-.05m.46-60.6a1 1 0 0 1-1.41-.15 1 1 0 1 1 1.41.15m.6-9.49a1 1 0 1 1 1.56-1.26 1 1 0 0 1-.15 1.4q-.3.23-.63.23c-.29 0-.58-.13-.78-.37m1.74 12.73a1 1 0 1 1 .63 1.78 1 1 0 0 1-.63-1.78m2.4 41.96a1 1 0 0 1-.95 1.31 1 1 0 0 1-.95-.69 1 1 0 0 1 .63-1.26 1 1 0 0 1 1.27.64m-1.95 6.96a1 1 0 0 1 .63-1.27c.53-.17 1.09.12 1.27.64a1 1 0 0 1-.95 1.31 1 1 0 0 1-.95-.68m1.51 6.87q-.16.05-.31.05a1 1 0 0 1-.95-.69 1 1 0 0 1 .63-1.26 1 1 0 0 1 1.27.64 1 1 0 0 1-.64 1.26m.2-71.68a1 1 0 0 1 .15-1.4 1 1 0 0 1 1.26 1.55 1 1 0 0 1-1.41-.15m1.59 14.15a1 1 0 0 1 .14-1.4 1 1 0 0 1 1.41.14 1 1 0 0 1-1.55 1.26m1.43 49.1a1 1 0 0 1 .64-1.27 1 1 0 0 1 1.26.64 1 1 0 0 1-.95 1.31 1 1 0 0 1-.95-.68m1.54 6.86a1 1 0 0 1-1.26-.64 1 1 0 1 1 1.26.64m2.32-58.95a1 1 0 0 1-.63.22 1 1 0 1 1 .63-.22m.25-7.92a1 1 0 0 1-1.41-.15 1 1 0 0 1 .15-1.4 1 1 0 0 1 1.41.14c.34.43.28 1.06-.15 1.41m.81-10.95a1 1 0 0 1 1.41.15 1 1 0 0 1-.15 1.4 1 1 0 0 1-.63.23c-.29 0-.58-.13-.78-.37a1 1 0 0 1 .15-1.41m1.8 62.43a1 1 0 1 1-1.9.62 1 1 0 0 1 1.9-.62m-1.98 6.97a1 1 0 0 1 1.9-.63 1.02 1.02 0 0 1-.95 1.32 1 1 0 0 1-.95-.69m1.56 6.85a1 1 0 1 1-.62-1.9 1 1 0 0 1 1.26.64 1 1 0 0 1-.64 1.26m1.45-60.53a1 1 0 0 1-.63.22 1 1 0 0 1-.63-1.78 1 1 0 1 1 1.26 1.56m.23-7.91a1 1 0 0 1-1.4-.14 1 1 0 0 1 .14-1.41 1 1 0 0 1 1.26 1.55m.84-10.96a1 1 0 0 1 1.41.14c.34.44.28 1.06-.15 1.41a1 1 0 0 1-1.41-.15 1 1 0 0 1 .15-1.4m1.39 63.38a1 1 0 1 1 .62 1.9q-.15.05-.31.05a1 1 0 0 1-.31-1.95m-.74 7.61a1 1 0 0 1 .64-1.26 1 1 0 0 1 1.26.64 1 1 0 0 1-.95 1.31 1 1 0 0 1-.95-.69m1.6 6.85q-.16.05-.32.05a1 1 0 1 1 .95-1.32c.17.53-.11 1.09-.63 1.27m.57-62.12a1 1 0 0 1-1.41-.14 1 1 0 1 1 1.56-1.26 1 1 0 0 1-.15 1.4m.22-7.89a1 1 0 0 1-.63.22c-.29 0-.58-.13-.78-.37a1 1 0 0 1 .15-1.41 1 1 0 0 1 1.41.15c.34.43.28 1.06-.15 1.41m.71-9.58a1 1 0 1 1 1.56-1.26 1 1 0 0 1-1.56 1.26m1.7 12.77a1 1 0 1 1 1.26 1.56 1 1 0 0 1-1.26-1.56m-.06 58.41a1 1 0 1 1 1.9-.62 1 1 0 1 1-1.9.62m1.62 6.84q-.16.05-.31.05a1 1 0 0 1-.95-.69 1 1 0 0 1 .63-1.26 1 1 0 0 1 1.27.64 1 1 0 0 1-.64 1.26M573 72.8c-.35-.43-.28-1.06.15-1.41s1.06-.28 1.4.15c.35.43.28 1.06-.14 1.41q-.3.21-.63.22c-.29 0-.58-.13-.78-.37m1.54 14.18a1 1 0 0 1 .15-1.4 1 1 0 0 1 1.41.14c.34.43.28 1.06-.15 1.41a1 1 0 0 1-.63.22 1 1 0 0 1-.78-.37m.93 58.59a1 1 0 0 1 .64-1.26 1 1 0 0 1 1.26.64 1 1 0 0 1-.95 1.31 1 1 0 0 1-.95-.69m1.65 6.83a1 1 0 0 1-1.26-.64 1 1 0 0 1 .63-1.26 1 1 0 0 1 1.27.64 1 1 0 0 1-.64 1.26m2.09-68.19c-.29 0-.58-.13-.78-.37a1 1 0 1 1 .78.37m1 59.81a1 1 0 0 1 .64-1.27 1 1 0 0 1 1.26.64 1 1 0 0 1-.95 1.31 1 1 0 0 1-.95-.68m1.67 6.82q-.16.04-.31.04a1 1 0 0 1-.31-1.95 1 1 0 0 1 .62 1.91m1.22-69.78c-.29 0-.58-.13-.78-.37a1 1 0 0 1 .15-1.41 1 1 0 0 1 1.41.15c.34.43.28 1.06-.15 1.41a1 1 0 0 1-.63.22m1.08 52.08a1 1 0 0 1 1.41-.08c.42.37.46 1 .09 1.41q-.32.34-.75.34-.36 0-.66-.25c-.42-.37-.45-1-.09-1.42m.59 8.88a1 1 0 0 1 .22-1.39 1 1 0 0 1 1.39.22 1 1 0 0 1-.81 1.59 1 1 0 0 1-.81-.42Zm1.92 6.93a1 1 0 0 1-.45.11 1 1 0 0 1-.89-.54 1 1 0 1 1 1.77-.92 1 1 0 0 1-.43 1.35m.81-19.55a1 1 0 0 1 1.42-.08 1 1 0 0 1 .08 1.41q-.32.34-.75.34a1 1 0 0 1-.75-1.67m1.04 9.38a1 1 0 0 1-.08-1.41 1 1 0 0 1 1.41-.09 1 1 0 1 1-1.33 1.5m2.5 7.28q-.3.23-.64.23-.45 0-.77-.36a1 1 0 1 1 1.41.13m.81-11.01a1 1 0 1 1 1.33-1.49 1 1 0 0 1-1.33 1.49m2.83 7.35a1 1 0 0 1-1.41.09 1 1 0 0 1-.09-1.41c.37-.41 1-.45 1.42-.09a1 1 0 0 1 .08 1.41m.48-11.08a1 1 0 1 1 1.41-.08q-.32.34-.75.34a1 1 0 0 1-.66-.26m2.85 7.34a1 1 0 0 1-1.5-1.33 1 1 0 0 1 1.42-.08 1 1 0 0 1 .08 1.41m.46-11.07a1 1 0 1 1 1.33-1.49 1 1 0 0 1 .08 1.41q-.32.33-.75.34a1 1 0 0 1-.66-.26m2.87 7.32a1 1 0 0 1-1.5-1.33 1 1 0 0 1 1.41-.08c.42.36.46.99.09 1.41m.44-11.04a1 1 0 0 1-.08-1.41 1 1 0 1 1 1.49 1.32 1 1 0 0 1-1.41.09m2.89 7.29a1 1 0 0 1-1.41.08 1 1 0 1 1 1.32-1.49 1 1 0 0 1 .09 1.41m.42-11.02a1 1 0 0 1-.08-1.41 1 1 0 1 1 1.49 1.32 1 1 0 0 1-1.41.09m2.91 7.27a1 1 0 0 1-1.42.08 1 1 0 1 1 1.33-1.49 1 1 0 0 1 .09 1.41m.4-11a1 1 0 1 1 1.33-1.49 1 1 0 0 1-1.33 1.49m2.92 7.25a1 1 0 0 1-1.41.08 1 1 0 1 1 1.41-.08m.39-10.98a1 1 0 0 1-.22-1.4c.33-.44.95-.54 1.4-.22s.54.96.22 1.4a1 1 0 0 1-1.4.22m2.94 7.23a1 1 0 0 1-.75.34 1 1 0 0 1-.66-.26 1 1 0 1 1 1.33-1.49 1 1 0 0 1 .08 1.41m1.06-11.93a1 1 0 0 1-1.33.5 1 1 0 0 1-.49-1.33h-.01a1 1 0 0 1 1.83.83m-.25-5.37a1 1 0 0 1 1.21-.72 1 1 0 1 1-.5 1.94 1 1 0 0 1-.71-1.22m2.49 13.4a1 1 0 0 1-1.4.21 1 1 0 0 1-.22-1.39 1 1 0 1 1 1.61 1.18Zm.68-17.73a1 1 0 0 1-1.21.72 1 1 0 1 1 1.21-.72m-.69-5.32a1 1 0 0 1 1.22-.72c.54.13.86.68.72 1.21a1 1 0 0 1-.97.76q-.12.01-.25-.04a1 1 0 0 1-.72-1.21m2.69 18.63a1 1 0 0 1-1.34.44 1 1 0 0 1-.45-1.34c.25-.49.85-.69 1.35-.45a1 1 0 0 1 .44 1.35m1.95-4.79a1 1 0 1 1-1.91-.61 1 1 0 0 1 1.26-.64c.53.16.82.73.65 1.25m1.32-4.89a1 1 0 1 1-1.94-.5 1 1 0 0 1 1.94.5m1.25-4.86a1 1 0 0 1-1.94-.5 1 1 0 0 1 1.22-.71 1 1 0 0 1 .72 1.21m1.25-4.85a1 1 0 1 1-1.94-.5 1 1 0 0 1 1.94.5m1.25-4.86a1 1 0 0 1-1.94-.5 1 1 0 1 1 1.94.5m1.25-4.85a1 1 0 0 1-1.22.72 1 1 0 0 1-.71-1.22 1 1 0 0 1 1.21-.72 1 1 0 0 1 .72 1.22m1.25-4.86a1 1 0 0 1-1.22.72 1 1 0 0 1-.72-1.22 1 1 0 1 1 1.94.5m1.25-4.85a1 1 0 0 1-.96.75l-.26-.04a1 1 0 0 1-.71-1.21 1 1 0 0 1 1.21-.72 1 1 0 0 1 .72 1.22m1.25-4.86a1 1 0 0 1-.96.75q-.13 0-.25-.03a1 1 0 0 1-.72-1.22 1 1 0 0 1 1.22-.72 1 1 0 0 1 .71 1.22m1.26-4.85a1 1 0 0 1-1.22.72 1 1 0 1 1 1.22-.72m1.25-4.86c-.12.45-.53.75-.97.75q-.12 0-.25-.03a1 1 0 0 1-.72-1.22c.14-.53.68-.85 1.22-.72.53.14.85.69.72 1.22m1.25-4.85a1 1 0 1 1-.72-1.22c.53.14.85.68.72 1.22m1.25-4.86c-.12.45-.53.75-.97.75q-.12 0-.25-.03a1 1 0 0 1-.72-1.22c.14-.53.68-.85 1.22-.72.53.14.85.69.72 1.22m1.25-4.85c-.12.45-.53.75-.97.75q-.12 0-.25-.03a1 1 0 1 1 1.22-.72m1.25-4.86a1 1 0 0 1-.97.75q-.12 0-.25-.03a1 1 0 0 1 .5-1.94 1 1 0 0 1 .72 1.22m1.25-4.85a1 1 0 0 1-.97.75q-.12.01-.25-.04a1 1 0 0 1-.72-1.21 1 1 0 1 1 1.94.5m1.25-4.86a1 1 0 0 1-.97.75q-.12 0-.25-.03a1 1 0 0 1-.72-1.22 1 1 0 1 1 1.94.5m1.25-4.85a1 1 0 0 1-.96.75q-.13.01-.26-.04a1 1 0 0 1-.71-1.21 1 1 0 0 1 1.21-.72 1 1 0 0 1 .72 1.22m.29-4.15-.21.02a1 1 0 0 1-.21-1.98 1 1 0 0 1 .42 1.96"/></svg>